<?xml version="1.0" encoding="UTF-8" standalone="no"?>
<!-- Created with Inkscape (http://www.inkscape.org/) -->
<svg
   xmlns:dc="http://purl.org/dc/elements/1.1/"
   xmlns:cc="http://creativecommons.org/ns#"
   xmlns:rdf="http://www.w3.org/1999/02/22-rdf-syntax-ns#"
   xmlns:svg="http://www.w3.org/2000/svg"
   xmlns="http://www.w3.org/2000/svg"
   xmlns:sodipodi="http://sodipodi.sourceforge.net/DTD/sodipodi-0.dtd"
   xmlns:inkscape="http://www.inkscape.org/namespaces/inkscape"
   id="svg2443"
   sodipodi:version="0.32"
   inkscape:version="0.46"
   width="115.4975"
   height="84.459999"
   xml:space="preserve"
   sodipodi:docname="Logo_EÌcole_Polytechnique.svg"
   inkscape:output_extension="org.inkscape.output.svg.inkscape"
   version="1.0"><metadata
     id="metadata2448"><rdf:RDF><cc:Work
         rdf:about=""><dc:format>image/svg+xml</dc:format><dc:type
           rdf:resource="http://purl.org/dc/dcmitype/StillImage" /></cc:Work></rdf:RDF></metadata><defs
     id="defs2446"><inkscape:perspective
       sodipodi:type="inkscape:persp3d"
       inkscape:vp_x="0 : 526.18109 : 1"
       inkscape:vp_y="0 : 1000 : 0"
       inkscape:vp_z="744.09448 : 526.18109 : 1"
       inkscape:persp3d-origin="372.04724 : 350.78739 : 1"
       id="perspective2450" /><clipPath
       clipPathUnits="userSpaceOnUse"
       id="clipPath2458"><path
         d="M -0.13797,841.945 L 595.13803,841.945 L 595.13803,0.055 L -0.13797,0.055 L -0.13797,841.945 z"
         id="path2460" /></clipPath><clipPath
       clipPathUnits="userSpaceOnUse"
       id="clipPath2464"><path
         d="M 0.015015,842.01 L 595.00501,842.01 L 595.00501,0 L 0.015015,0 L 0.015015,842.01 z"
         id="path2466" /></clipPath><clipPath
       clipPathUnits="userSpaceOnUse"
       id="clipPath2886"><path
         d="M 63.496,796.72 L 281.296,796.72 L 281.296,385.72 L 63.496,385.72 L 63.496,796.72"
         id="path2888" /></clipPath><clipPath
       clipPathUnits="userSpaceOnUse"
       id="clipPath2892"><path
         d="M 63.496,796.72 L 63.496,385.658 L 281.292,385.658 L 281.292,796.72"
         id="path2894" /></clipPath><clipPath
       clipPathUnits="userSpaceOnUse"
       id="clipPath2898"><path
         d="M 56.555,802.26 L 290.122,802.26 L 290.122,667.945 L 56.555,667.945 L 56.555,802.26 z"
         clip-rule="evenodd"
         id="path2900" /></clipPath><clipPath
       clipPathUnits="userSpaceOnUse"
       id="clipPath2904"><path
         d="M -0.13797,841.945 L 595.13803,841.945 L 595.13803,0.055 L -0.13797,0.055 L -0.13797,841.945 z"
         id="path2906" /></clipPath><clipPath
       clipPathUnits="userSpaceOnUse"
       id="clipPath2910"><path
         d="M 0.015015,842.01 L 595.00501,842.01 L 595.00501,0 L 0.015015,0 L 0.015015,842.01 z"
         id="path2912" /></clipPath><clipPath
       clipPathUnits="userSpaceOnUse"
       id="clipPath2944"><path
         d="M -0.13797,841.945 L 595.13803,841.945 L 595.13803,0.055 L -0.13797,0.055 L -0.13797,841.945 z"
         id="path2946" /></clipPath><clipPath
       clipPathUnits="userSpaceOnUse"
       id="clipPath2950"><path
         d="M 0.015015,842.01 L 595.00501,842.01 L 595.00501,0 L 0.015015,0 L 0.015015,842.01 z"
         id="path2952" /></clipPath><clipPath
       clipPathUnits="userSpaceOnUse"
       id="clipPath3376"><path
         d="M -0.13797,841.945 L 595.13803,841.945 L 595.13803,0.055 L -0.13797,0.055 L -0.13797,841.945 z"
         id="path3378" /></clipPath><clipPath
       clipPathUnits="userSpaceOnUse"
       id="clipPath3382"><path
         d="M 0.015015,842.01 L 595.00501,842.01 L 595.00501,0 L 0.015015,0 L 0.015015,842.01 z"
         id="path3384" /></clipPath><clipPath
       clipPathUnits="userSpaceOnUse"
       id="clipPath3392"><path
         d="M -0.13797,841.945 L 595.13803,841.945 L 595.13803,0.055 L -0.13797,0.055 L -0.13797,841.945 z"
         id="path3394" /></clipPath><clipPath
       clipPathUnits="userSpaceOnUse"
       id="clipPath3398"><path
         d="M 0.015015,842.01 L 595.00501,842.01 L 595.00501,0 L 0.015015,0 L 0.015015,842.01 z"
         id="path3400" /></clipPath><clipPath
       clipPathUnits="userSpaceOnUse"
       id="clipPath4964"><path
         d="M 148.894,657.561 L 218.191,657.561 L 218.191,568.695 L 148.894,568.695 L 148.894,657.561 z"
         clip-rule="evenodd"
         id="path4966" /></clipPath><clipPath
       clipPathUnits="userSpaceOnUse"
       id="clipPath4976"><path
         d="M -0.13797,841.945 L 595.13803,841.945 L 595.13803,0.055 L -0.13797,0.055 L -0.13797,841.945 z"
         id="path4978" /></clipPath><clipPath
       clipPathUnits="userSpaceOnUse"
       id="clipPath4982"><path
         d="M 0.015015,842.01 L 595.00501,842.01 L 595.00501,0 L 0.015015,0 L 0.015015,842.01 z"
         id="path4984" /></clipPath></defs><sodipodi:namedview
     inkscape:window-height="701"
     inkscape:window-width="640"
     inkscape:pageshadow="2"
     inkscape:pageopacity="0.0"
     guidetolerance="10.0"
     gridtolerance="10.0"
     objecttolerance="10.0"
     borderopacity="1.0"
     bordercolor="#666666"
     pagecolor="#ffffff"
     id="base"
     showgrid="false"
     inkscape:zoom="3.2732701"
     inkscape:cx="65.239023"
     inkscape:cy="35.632437"
     inkscape:window-x="0"
     inkscape:window-y="22"
     inkscape:current-layer="g2452" /><g
     id="g2452"
     inkscape:groupmode="layer"
     inkscape:label="flash3"
     transform="matrix(1.25,0,0,-1.25,-93.57875,181.98875)"><g
       id="g5210"><g
         id="g5018"><path
           d="M 99.555,145.591 L 134.846,145.591 L 134.829,88.928 L 109.527,88.928 L 99.555,145.591"
           style="fill:#003555;fill-opacity:1;fill-rule:nonzero;stroke:none"
           id="path2956" /><path
           d="M 108.966,106.611 C 109.446,106.611 109.835,107.013 109.835,107.506 C 109.835,108 109.446,108.4 108.966,108.4 C 108.487,108.4 108.098,108 108.098,107.506 C 108.098,107.013 108.487,106.611 108.966,106.611"
           style="fill:#003555;fill-opacity:1;fill-rule:nonzero;stroke:none"
           id="path2958" /><path
           d="M 108.966,106.854 C 109.317,106.854 109.6,107.145 109.6,107.506 C 109.6,107.866 109.317,108.158 108.966,108.158 C 108.616,108.158 108.333,107.866 108.333,107.506 C 108.333,107.145 108.616,106.854 108.966,106.854"
           style="fill:#b1cfdb;fill-opacity:1;fill-rule:nonzero;stroke:none"
           id="path2960" /><path
           d="M 109.739,107.087 C 109.471,107.242 109.534,107.276 109.21,107.435 C 109.171,107.403 109.116,107.408 109.128,107.353 L 109.62,106.956 L 109.739,107.087"
           style="fill:#003555;fill-opacity:1;fill-rule:nonzero;stroke:none"
           id="path2962" /><path
           d="M 109.428,106.869 C 109.163,107.087 109.3,107.036 109.007,107.149 C 108.952,107.118 108.948,107.126 108.942,107.073 L 109.339,106.782 L 109.428,106.869"
           style="fill:#003555;fill-opacity:1;fill-rule:nonzero;stroke:none"
           id="path2964" /><path
           d="M 131.421,107.161 C 130.942,107.161 130.553,107.561 130.553,108.054 C 130.553,108.549 130.942,108.949 131.421,108.949 C 131.901,108.949 132.29,108.549 132.29,108.054 C 132.29,107.561 131.901,107.161 131.421,107.161"
           style="fill:#003555;fill-opacity:1;fill-rule:nonzero;stroke:none"
           id="path2966" /><path
           d="M 131.421,107.403 C 131.071,107.403 130.788,107.694 130.788,108.054 C 130.788,108.415 131.071,108.707 131.421,108.707 C 131.77,108.707 132.055,108.415 132.055,108.054 C 132.055,107.694 131.77,107.403 131.421,107.403"
           style="fill:#b1cfdb;fill-opacity:1;fill-rule:nonzero;stroke:none"
           id="path2968" /><path
           d="M 131.923,108.696 C 131.716,108.466 131.694,108.534 131.471,108.25 C 131.497,108.206 131.479,108.152 131.53,108.158 L 132.022,108.555 L 131.923,108.696"
           style="fill:#003555;fill-opacity:1;fill-rule:nonzero;stroke:none"
           id="path2970" /><path
           d="M 132.071,108.346 C 131.803,108.131 131.882,108.256 131.71,107.993 C 131.729,107.931 131.719,107.928 131.77,107.914 L 132.137,108.241 L 132.071,108.346"
           style="fill:#003555;fill-opacity:1;fill-rule:nonzero;stroke:none"
           id="path2972" /><path
           d="M 112.114,107.044 C 112.432,107.46 115.993,112.564 116.237,112.934 C 116.341,113.121 114.573,119.339 114.339,119.288 L 107.647,110.516 L 107.112,110.763 L 106.354,109.589 L 111.735,105.644 L 112.661,106.766 L 112.114,107.044"
           style="fill:#003555;fill-opacity:1;fill-rule:nonzero;stroke:none"
           id="path2974" /><path
           d="M 111.258,108.55 L 112.266,107.747 L 112.182,107.577 L 111.178,108.361 C 111.157,108.327 111.073,108.387 111.067,108.3 L 111.059,108.212 C 111.424,107.915 111.696,107.723 112.061,107.41 L 111.932,107.268 C 111.932,107.268 108.028,110.095 107.794,110.329 C 108.319,111.083 114.342,118.59 114.342,118.59 C 115.262,118.053 114.979,113.667 115.796,112.94 C 115.864,112.88 115.661,112.802 115.725,112.741 C 115.354,112.985 114.934,113.352 114.559,113.525 C 114.503,113.494 114.464,113.444 114.475,113.372 L 115.579,112.56 L 115.573,112.49 C 115.137,112.596 114.801,113.154 114.387,113.277 C 114.313,113.248 114.323,113.159 114.354,113.102 C 114.729,112.912 115.063,112.568 115.397,112.309 C 115.376,112.259 115.36,112.171 115.298,112.177 L 114.292,112.98 C 114.239,112.985 114.184,112.971 114.145,112.922 L 114.171,112.813 L 115.178,112.026 L 115.118,111.925 L 114.093,112.706 C 114.038,112.692 113.95,112.7 113.962,112.628 L 113.956,112.557 C 114.294,112.352 114.682,111.95 115.001,111.773 C 115.046,111.68 114.969,111.654 114.928,111.587 L 113.868,112.393 C 113.813,112.381 113.725,112.387 113.737,112.316 L 113.731,112.245 C 114.069,112.04 114.391,111.674 114.721,111.411 L 114.637,111.267 C 114.35,111.433 113.885,111.886 113.579,112.036 C 113.54,112.004 113.485,111.972 113.499,111.918 L 114.516,111.1 C 114.528,111.011 114.403,111.004 114.352,111.044 C 114.087,111.261 113.673,111.688 113.382,111.802 C 113.325,111.77 113.321,111.719 113.317,111.666 L 114.309,110.859 L 114.249,110.776 C 113.962,110.941 113.51,111.357 113.204,111.508 C 113.165,111.475 113.11,111.444 113.124,111.39 L 114.128,110.608 C 114.139,110.518 114.014,110.511 113.964,110.552 C 113.698,110.768 113.294,111.134 113.003,111.247 C 112.946,111.216 112.942,111.163 112.938,111.11 L 113.975,110.349 C 113.975,110.349 113.866,110.257 113.825,110.189 C 113.508,110.428 113.139,110.632 112.844,110.923 C 112.79,110.91 112.718,110.898 112.714,110.845 L 112.723,110.756 L 113.688,109.971 C 113.719,109.916 113.661,109.85 113.602,109.802 C 113.247,109.991 112.95,110.491 112.532,110.579 C 112.477,110.566 112.491,110.512 112.487,110.459 L 113.468,109.653 C 113.497,109.598 113.421,109.534 113.382,109.483 L 112.378,110.267 C 112.358,110.234 112.274,110.294 112.266,110.206 L 112.258,110.118 C 112.624,109.821 112.897,109.631 113.261,109.316 L 113.161,109.182 L 112.192,109.969 C 112.137,109.973 112.085,109.96 112.044,109.91 L 112.071,109.802 L 113.042,109.033 L 112.981,108.931 L 111.973,109.703 C 111.921,109.69 111.833,109.697 111.843,109.626 L 111.837,109.554 C 112.174,109.349 112.518,108.917 112.882,108.815 L 112.8,108.672 C 112.512,108.839 112.048,109.29 111.741,109.44 C 111.702,109.408 111.647,109.377 111.659,109.323 L 112.678,108.505 C 112.688,108.415 112.563,108.408 112.514,108.448 C 112.249,108.665 111.835,109.093 111.544,109.206 C 111.487,109.175 111.483,109.122 111.479,109.069 L 112.544,108.288 L 112.38,108.009 L 111.366,108.719 L 111.258,108.55"
           style="fill:#b1cfdb;fill-opacity:1;fill-rule:nonzero;stroke:none"
           id="path2976" /><path
           d="M 112.102,106.679 L 111.952,106.524 C 111.665,106.689 111.268,107.052 110.962,107.201 C 110.923,107.169 110.866,107.137 110.88,107.084 L 111.831,106.356 C 111.841,106.267 111.717,106.26 111.667,106.3 C 111.401,106.516 111.051,106.89 110.758,107.003 C 110.704,106.972 110.698,106.92 110.694,106.867 L 111.624,106.115 C 111.632,106.008 111.507,105.983 111.44,106.042 C 110.344,106.93 107.815,108.845 106.637,109.6 L 107.089,110.324 C 108.036,109.784 111.786,106.919 112.102,106.679"
           style="fill:#b1cfdb;fill-opacity:1;fill-rule:nonzero;stroke:none"
           id="path2978" /><path
           d="M 132.77,111.061 C 132.446,111.472 126.479,118.668 126.182,118.995 C 126.026,119.142 121.841,116.188 121.833,115.948 L 128.237,107.647 L 127.827,107.263 L 128.733,106.23 L 133.827,110.289 L 133.241,111.325 L 132.77,111.061"
           style="fill:#003555;fill-opacity:1;fill-rule:nonzero;stroke:none"
           id="path2980" /><path
           d="M 132.368,111.126 L 132.471,110.908 C 131.653,110.256 128.583,107.921 128.426,107.89 C 127.827,108.585 122.51,115.779 122.51,115.779 L 126.008,118.495 C 126.069,118.512 126.112,118.422 126.151,118.371 L 125.143,117.594 C 125.171,117.565 125.093,117.499 125.175,117.469 L 125.258,117.441 C 125.636,117.721 125.889,117.937 126.284,118.213 L 126.387,118.083 L 125.387,117.338 C 125.37,117.288 125.368,117.232 125.407,117.181 L 125.518,117.179 L 126.505,117.93 L 126.587,117.846 L 125.591,117.061 C 125.589,117.006 125.559,116.923 125.633,116.916 L 125.7,116.892 C 125.981,117.169 126.487,117.394 126.675,117.721 L 126.794,117.605 C 126.561,117.368 126.008,117.03 125.788,116.77 C 125.809,116.725 125.825,116.663 125.88,116.663 L 126.926,117.447 C 127.014,117.434 126.991,117.312 126.94,117.274 C 126.663,117.07 126.147,116.775 125.964,116.52 C 125.979,116.459 126.03,116.442 126.081,116.425 L 127.108,117.186 L 127.174,117.107 C 126.942,116.87 126.426,116.536 126.206,116.276 C 126.227,116.231 126.243,116.169 126.3,116.169 L 127.305,116.949 C 127.395,116.936 127.372,116.814 127.321,116.775 C 127.044,116.572 126.591,116.27 126.409,116.015 C 126.424,115.954 126.475,115.936 126.524,115.919 L 127.489,116.687 C 127.489,116.687 127.6,116.603 127.655,116.547 C 127.344,116.299 127.038,115.996 126.682,115.782 C 126.682,115.726 126.675,115.654 126.725,115.636 L 126.815,115.624 L 127.813,116.364 C 127.876,116.38 127.924,116.307 127.958,116.239 C 127.684,115.941 127.128,115.778 126.938,115.395 C 126.938,115.339 126.993,115.339 127.044,115.321 L 128.067,116.071 C 128.128,116.087 128.173,115.997 128.21,115.946 L 127.202,115.169 C 127.229,115.14 127.151,115.074 127.233,115.046 L 127.317,115.016 C 127.696,115.297 127.948,115.513 128.343,115.788 C 128.419,115.839 128.444,115.622 128.518,115.669 C 128.19,115.372 127.731,115.056 127.469,114.734 C 127.485,114.673 127.524,114.622 127.596,114.615 L 128.657,115.482 L 128.723,115.459 C 128.512,115.064 127.889,114.878 127.667,114.506 C 127.676,114.428 127.766,114.415 127.829,114.43 C 128.106,114.746 128.522,114.987 128.854,115.245 C 128.899,115.211 128.981,115.175 128.96,115.115 L 127.93,114.34 C 127.915,114.29 127.913,114.234 127.952,114.183 L 128.063,114.181 L 129.075,114.963 L 129.159,114.878 L 128.147,114.079 C 128.147,114.023 128.118,113.94 128.19,113.932 L 128.257,113.91 C 128.54,114.185 129.026,114.463 129.276,114.727 C 129.378,114.749 129.386,114.669 129.44,114.612 L 128.395,113.784 C 128.393,113.729 128.364,113.645 128.438,113.638 L 128.505,113.615 C 128.786,113.891 129.221,114.113 129.557,114.366 L 129.676,114.25 C 129.444,114.012 128.891,113.675 128.669,113.415 C 128.69,113.37 128.708,113.308 128.762,113.307 L 129.807,114.092 C 129.897,114.08 129.874,113.957 129.823,113.919 C 129.546,113.716 129.03,113.421 128.846,113.166 C 128.864,113.104 128.913,113.087 128.964,113.069 L 129.991,113.831 L 130.057,113.752 C 129.825,113.514 129.309,113.18 129.089,112.921 C 129.11,112.876 129.126,112.814 129.182,112.813 L 130.188,113.594 C 130.278,113.582 130.255,113.459 130.204,113.421 C 129.926,113.218 129.473,112.915 129.292,112.661 C 129.307,112.598 129.356,112.582 129.407,112.564 L 130.401,113.381 C 130.401,113.381 130.464,113.253 130.52,113.196 C 130.21,112.948 129.921,112.64 129.565,112.427 C 129.565,112.371 129.559,112.299 129.608,112.281 L 129.698,112.268 L 130.696,113.01 C 130.758,113.026 130.807,112.952 130.841,112.885 C 130.569,112.587 130.01,112.423 129.821,112.04 C 129.821,111.984 129.876,111.983 129.926,111.966 L 130.95,112.716 C 131.011,112.731 131.055,112.641 131.093,112.591 L 130.085,111.813 C 130.112,111.785 130.032,111.719 130.116,111.69 L 130.2,111.661 C 130.577,111.942 130.831,112.158 131.225,112.433 L 131.331,112.303 L 130.327,111.558 C 130.309,111.509 130.309,111.453 130.348,111.401 L 130.46,111.4 L 131.446,112.151 L 131.528,112.066 L 130.532,111.282 C 130.53,111.226 130.501,111.143 130.575,111.136 L 130.641,111.113 C 130.924,111.389 131.428,111.614 131.616,111.942 L 131.735,111.825 C 131.503,111.589 130.95,111.251 130.727,110.991 C 130.751,110.945 130.766,110.884 130.823,110.883 L 131.866,111.668 C 131.956,111.655 131.932,111.533 131.882,111.495 C 131.606,111.291 131.089,110.996 130.905,110.741 C 130.923,110.679 130.971,110.662 131.022,110.645 L 132.049,111.406 L 132.114,111.328 C 131.883,111.09 131.368,110.757 131.147,110.497 C 131.169,110.451 131.184,110.389 131.241,110.388 L 132.368,111.126"
           style="fill:#b1cfdb;fill-opacity:1;fill-rule:nonzero;stroke:none"
           id="path2982" /><path
           d="M 133.067,111.065 L 133.174,110.879 C 132.938,110.647 132.481,110.364 132.253,110.109 C 132.272,110.064 132.288,110.003 132.344,110 L 133.303,110.718 C 133.391,110.702 133.366,110.581 133.313,110.544 C 133.032,110.347 132.577,110.111 132.387,109.861 C 132.403,109.8 132.452,109.781 132.503,109.761 L 133.479,110.451 C 133.585,110.43 133.573,110.303 133.499,110.255 C 132.344,109.442 129.813,107.532 128.766,106.604 L 128.192,107.235 C 128.969,108.001 132.749,110.826 133.067,111.065"
           style="fill:#b1cfdb;fill-opacity:1;fill-rule:nonzero;stroke:none"
           id="path2984" /><path
           d="M 118.073,111.012 C 118.169,109.677 111.737,111.122 110.989,111.831 L 110.952,111.831 C 110.952,111.831 111.889,112.652 111.45,112.833 C 111.45,112.833 109.663,112.908 109.132,112.967 L 108.448,113.078 C 107.934,113.191 106.337,113.507 105.841,113.675 C 106.464,112.293 108.067,109.709 109.026,108.479 C 109.026,108.479 109.35,108.224 109.559,108.371 C 109.899,108.612 109.868,109.178 109.827,109.432 C 111.702,108.524 113.538,107.895 115.301,107.538 C 115.991,107.352 116.77,107.336 117.434,107.061 C 118.7,106.638 119.487,105.513 119.831,104.315 C 120.175,105.513 120.962,106.638 122.227,107.061 C 122.889,107.336 123.653,107.334 124.343,107.52 C 126.258,107.909 128.077,108.582 129.835,109.432 C 129.796,109.178 129.762,108.612 130.104,108.371 C 130.311,108.224 130.636,108.479 130.636,108.479 C 131.594,109.709 133.198,112.293 133.821,113.675 C 133.327,113.507 131.725,113.191 131.214,113.078 L 130.53,112.967 C 130.001,112.908 128.21,112.833 128.21,112.833 C 127.774,112.652 128.745,111.722 128.745,111.722 C 127.997,111.013 121.565,109.568 121.661,110.903 C 121.501,110.936 121.53,111.088 121.63,111.28 L 118.032,111.28 L 118.073,111.012"
           style="fill:#003555;fill-opacity:1;fill-rule:nonzero;stroke:none"
           id="path2986" /><path
           d="M 119.831,105.402 C 119.38,106.378 118.499,107.162 117.458,107.481 C 115.204,107.941 112.95,108.39 110.887,109.444 C 110.356,109.675 109.862,109.993 109.337,110.266 C 109.298,109.864 109.497,109.397 109.397,108.993 L 109.321,108.988 C 108.26,110.028 107.538,111.262 106.803,112.509 L 106.823,112.532 C 109.055,110.761 111.579,109.838 114.173,109.144 C 116.022,108.644 117.858,108.36 119.831,108.245 C 121.803,108.36 123.639,108.644 125.489,109.144 C 128.083,109.838 130.606,110.761 132.837,112.532 L 132.858,112.509 C 132.124,111.262 131.401,110.028 130.339,108.988 L 130.264,108.993 C 130.165,109.397 130.364,109.864 130.325,110.266 C 129.799,109.993 129.305,109.675 128.772,109.444 C 126.712,108.39 124.458,107.941 122.204,107.481 C 121.163,107.162 120.282,106.378 119.831,105.402"
           style="fill:#b1cfdb;fill-opacity:1;fill-rule:nonzero;stroke:none"
           id="path2988" /><path
           d="M 118.643,110.826 C 118.53,108.918 111.159,110.905 110.223,111.725 L 110.647,112.196 C 110.674,112.263 110.872,112.319 110.915,112.436 C 109.528,112.489 107.954,112.663 106.747,113.048 C 107.999,111.763 113.991,108.675 119.831,108.598 C 125.671,108.675 131.663,111.763 132.915,113.048 C 131.708,112.663 130.133,112.489 128.749,112.436 C 128.79,112.319 128.987,112.263 129.014,112.196 L 129.511,111.618 C 128.575,110.797 121.204,108.809 121.091,110.718 C 120.966,110.909 120.989,110.911 121.034,111.101 L 118.628,111.101 L 118.643,110.826"
           style="fill:#b1cfdb;fill-opacity:1;fill-rule:nonzero;stroke:none"
           id="path2990" /><path
           d="M 121.532,111.008 C 120.579,110.936 121.393,110.952 120.458,110.969 C 120.475,110.917 120.346,110.813 120.469,110.761 C 121.387,110.778 120.555,110.738 121.473,110.792 L 121.296,110.599 C 121.296,110.599 121.174,110.541 120.505,110.425 C 120.432,110.354 120.499,110.268 120.587,110.233 C 121.446,110.386 121.446,110.386 121.446,110.386 L 121.532,111.008"
           style="fill:#003555;fill-opacity:1;fill-rule:nonzero;stroke:none"
           id="path2992" /><path
           d="M 121.829,110.261 L 121.575,109.841 C 121.089,109.097 121.872,110.294 121.296,109.416 C 121.28,109.363 121.333,109.346 121.376,109.316 L 121.475,109.333 L 121.958,110.089 L 121.829,110.261"
           style="fill:#003555;fill-opacity:1;fill-rule:nonzero;stroke:none"
           id="path2994" /><path
           d="M 122.751,110.291 L 122.626,109.805 C 122.491,108.937 122.749,110.511 122.583,109.466 C 122.591,109.411 122.645,109.418 122.696,109.408 L 122.78,109.464 L 122.938,110.187 L 122.751,110.291"
           style="fill:#003555;fill-opacity:1;fill-rule:nonzero;stroke:none"
           id="path2996" /><path
           d="M 122.235,110.303 L 122.057,109.834 C 121.823,108.971 122.217,110.423 121.94,109.417 C 121.942,109.361 121.999,109.362 122.048,109.345 L 122.126,109.407 L 122.397,110.194 L 122.235,110.303"
           style="fill:#003555;fill-opacity:1;fill-rule:nonzero;stroke:none"
           id="path2998" /><path
           d="M 121.368,110.291 L 120.719,109.859 C 120.69,109.753 120.764,109.706 120.86,109.704 C 121.458,110.055 121.548,110.149 121.548,110.149 L 121.368,110.291"
           style="fill:#003555;fill-opacity:1;fill-rule:nonzero;stroke:none"
           id="path3000" /><path
           d="M 123.143,110.248 C 123.173,109.614 123.163,110.209 123.133,109.556 C 123.186,109.572 123.27,109.413 123.327,109.535 C 123.339,110.301 123.354,109.335 123.333,110.255 L 123.143,110.248"
           style="fill:#003555;fill-opacity:1;fill-rule:nonzero;stroke:none"
           id="path3002" /><path
           d="M 123.628,110.178 C 123.657,109.546 123.647,109.999 123.618,109.669 C 123.7,109.583 123.755,109.524 123.813,109.646 C 123.813,109.646 123.819,109.794 123.817,110.185 L 123.628,110.178"
           style="fill:#003555;fill-opacity:1;fill-rule:nonzero;stroke:none"
           id="path3004" /><path
           d="M 124.03,110.266 C 124.061,109.634 124.05,110.071 124.02,109.741 C 124.104,109.655 124.157,109.628 124.214,109.749 C 124.214,109.749 124.221,109.882 124.219,110.273 L 124.03,110.266"
           style="fill:#003555;fill-opacity:1;fill-rule:nonzero;stroke:none"
           id="path3006" /><path
           d="M 124.473,110.276 C 124.503,109.642 124.493,110.161 124.464,109.831 C 124.548,109.746 124.6,109.718 124.657,109.84 C 124.657,109.84 124.665,109.89 124.663,110.282 L 124.473,110.276"
           style="fill:#003555;fill-opacity:1;fill-rule:nonzero;stroke:none"
           id="path3008" /><path
           d="M 124.907,110.298 C 124.936,109.665 124.909,110.283 124.88,109.953 C 124.964,109.868 125.014,109.84 125.073,109.962 C 125.073,109.962 125.081,109.93 125.079,110.323 L 124.907,110.298"
           style="fill:#003555;fill-opacity:1;fill-rule:nonzero;stroke:none"
           id="path3010" /><path
           d="M 125.307,110.548 C 125.339,109.914 125.329,110.727 125.298,110.075 C 125.352,110.092 125.434,109.963 125.493,110.085 C 125.503,110.85 125.518,109.634 125.497,110.553 L 125.307,110.548"
           style="fill:#003555;fill-opacity:1;fill-rule:nonzero;stroke:none"
           id="path3012" /><path
           d="M 125.733,110.604 C 125.762,109.971 125.762,110.581 125.733,110.251 C 125.817,110.165 125.87,110.122 125.926,110.244 C 125.926,110.244 125.925,110.219 125.923,110.611 L 125.733,110.604"
           style="fill:#003555;fill-opacity:1;fill-rule:nonzero;stroke:none"
           id="path3014" /><path
           d="M 126.186,110.706 C 126.216,110.073 126.214,110.736 126.184,110.406 C 126.268,110.321 126.323,110.277 126.38,110.399 C 126.38,110.399 126.378,110.321 126.376,110.713 L 126.186,110.706"
           style="fill:#003555;fill-opacity:1;fill-rule:nonzero;stroke:none"
           id="path3016" /><path
           d="M 118.174,111.071 C 119.128,111 118.102,110.973 119.04,110.991 C 119.022,110.938 119.118,110.886 118.993,110.833 C 118.075,110.85 119.27,110.81 118.35,110.864 L 118.196,110.671 C 118.196,110.671 118.186,110.634 118.856,110.518 C 118.928,110.448 118.874,110.378 118.786,110.342 C 118.061,110.48 117.928,110.494 117.928,110.494 L 118.174,111.071"
           style="fill:#003555;fill-opacity:1;fill-rule:nonzero;stroke:none"
           id="path3018" /><path
           d="M 117.544,110.368 L 117.798,109.949 C 118.286,109.201 117.505,110.396 118.077,109.524 C 118.092,109.471 118.04,109.455 117.997,109.425 L 117.897,109.441 L 117.415,110.197 L 117.544,110.368"
           style="fill:#003555;fill-opacity:1;fill-rule:nonzero;stroke:none"
           id="path3020" /><path
           d="M 116.622,110.399 L 116.747,109.913 C 116.883,109.031 116.626,110.604 116.79,109.575 C 116.784,109.519 116.727,109.526 116.676,109.516 L 116.592,109.572 L 116.434,110.296 L 116.622,110.399"
           style="fill:#003555;fill-opacity:1;fill-rule:nonzero;stroke:none"
           id="path3022" /><path
           d="M 117.137,110.411 L 117.315,109.942 C 117.55,109.081 117.155,110.531 117.43,109.524 C 117.43,109.469 117.374,109.469 117.323,109.454 L 117.235,109.501 L 116.964,110.288 L 117.137,110.411"
           style="fill:#003555;fill-opacity:1;fill-rule:nonzero;stroke:none"
           id="path3024" /><path
           d="M 117.993,110.385 L 118.686,109.926 C 118.727,109.834 118.653,109.787 118.557,109.786 C 117.962,110.137 117.825,110.258 117.825,110.258 L 117.993,110.385"
           style="fill:#003555;fill-opacity:1;fill-rule:nonzero;stroke:none"
           id="path3026" /><path
           d="M 116.229,110.356 C 116.2,109.722 116.21,110.302 116.239,109.65 C 116.184,109.666 116.102,109.521 116.044,109.643 C 116.034,110.409 116.018,109.442 116.04,110.362 L 116.229,110.356"
           style="fill:#003555;fill-opacity:1;fill-rule:nonzero;stroke:none"
           id="path3028" /><path
           d="M 115.745,110.288 C 115.716,109.653 115.725,110.093 115.755,109.761 C 115.671,109.677 115.618,109.633 115.561,109.755 C 115.561,109.755 115.553,109.902 115.555,110.294 L 115.745,110.288"
           style="fill:#003555;fill-opacity:1;fill-rule:nonzero;stroke:none"
           id="path3030" /><path
           d="M 115.343,110.376 C 115.313,109.741 115.323,110.18 115.352,109.849 C 115.268,109.764 115.214,109.72 115.157,109.843 C 115.157,109.843 115.151,109.99 115.153,110.382 L 115.343,110.376"
           style="fill:#003555;fill-opacity:1;fill-rule:nonzero;stroke:none"
           id="path3032" /><path
           d="M 114.899,110.384 C 114.87,109.751 114.88,110.27 114.909,109.939 C 114.825,109.854 114.772,109.811 114.716,109.932 C 114.716,109.932 114.708,109.999 114.71,110.39 L 114.899,110.384"
           style="fill:#003555;fill-opacity:1;fill-rule:nonzero;stroke:none"
           id="path3034" /><path
           d="M 114.466,110.407 C 114.436,109.773 114.466,110.391 114.493,110.061 C 114.411,109.976 114.356,109.932 114.3,110.054 C 114.3,110.054 114.294,110.04 114.296,110.431 L 114.466,110.407"
           style="fill:#003555;fill-opacity:1;fill-rule:nonzero;stroke:none"
           id="path3036" /><path
           d="M 114.065,110.655 C 114.036,110.022 114.046,110.837 114.075,110.184 C 114.02,110.2 113.936,110.055 113.88,110.177 C 113.87,110.943 113.854,109.742 113.876,110.662 L 114.065,110.655"
           style="fill:#003555;fill-opacity:1;fill-rule:nonzero;stroke:none"
           id="path3038" /><path
           d="M 113.639,110.714 C 113.61,110.08 113.61,110.689 113.641,110.358 C 113.557,110.274 113.503,110.23 113.446,110.352 C 113.446,110.352 113.448,110.328 113.45,110.719 L 113.639,110.714"
           style="fill:#003555;fill-opacity:1;fill-rule:nonzero;stroke:none"
           id="path3040" /><path
           d="M 113.186,110.814 C 113.157,110.18 113.159,110.845 113.188,110.514 C 113.104,110.428 113.05,110.386 112.993,110.508 C 112.993,110.508 112.995,110.428 112.997,110.821 L 113.186,110.814"
           style="fill:#003555;fill-opacity:1;fill-rule:nonzero;stroke:none"
           id="path3042" /><path
           d="M 130.464,109.029 C 130.593,109.314 130.511,109.888 130.561,110.147 C 130.608,110.164 130.661,110.196 130.686,110.132 C 130.743,109.833 130.69,109.295 130.633,109.007 L 130.464,109.029"
           style="fill:#003555;fill-opacity:1;fill-rule:nonzero;stroke:none"
           id="path3044" /><path
           d="M 130.837,109.456 C 130.962,109.723 130.995,110.252 131.032,110.516 C 131.075,110.516 131.13,110.549 131.153,110.483 C 131.202,110.207 131.065,109.626 131.022,109.333 L 130.837,109.456"
           style="fill:#003555;fill-opacity:1;fill-rule:nonzero;stroke:none"
           id="path3046" /><path
           d="M 131.307,109.829 C 131.237,109.932 131.409,110.32 131.438,110.418 C 131.469,110.624 131.405,110.889 131.495,111.053 C 131.633,111.031 131.592,110.802 131.612,110.666 C 131.52,110.503 131.596,109.844 131.399,109.761 L 131.307,109.829"
           style="fill:#003555;fill-opacity:1;fill-rule:nonzero;stroke:none"
           id="path3048" /><path
           d="M 131.71,110.368 C 131.852,110.702 131.878,111.339 131.917,111.656 C 131.958,111.694 132.005,111.71 132.051,111.673 C 132.126,111.331 132.02,110.624 131.854,110.309 L 131.71,110.368"
           style="fill:#003555;fill-opacity:1;fill-rule:nonzero;stroke:none"
           id="path3050" /><path
           d="M 132.21,111.403 C 132.331,111.663 132.258,111.608 132.296,111.885 C 132.341,111.885 132.393,111.917 132.417,111.852 C 132.466,111.576 132.438,111.572 132.395,111.28 L 132.21,111.403"
           style="fill:#003555;fill-opacity:1;fill-rule:nonzero;stroke:none"
           id="path3052" /><path
           d="M 120.466,106.409 C 120.372,106.448 120.214,106.446 120.282,106.512 C 121.008,106.532 120.696,106.168 120.696,106.168 C 120.696,106.168 120.772,106.331 120.466,106.409"
           style="fill:#003555;fill-opacity:1;fill-rule:nonzero;stroke:none"
           id="path3054" /><path
           d="M 121.491,106.844 L 121.188,107.064 C 120.505,107.537 121.725,106.671 120.788,107.315 C 120.753,107.359 120.796,107.394 120.825,107.438 L 120.923,107.461 L 121.636,106.979 L 121.491,106.844"
           style="fill:#003555;fill-opacity:1;fill-rule:nonzero;stroke:none"
           id="path3056" /><path
           d="M 122.356,107.218 L 122.149,107.495 C 121.688,108.259 122.585,106.778 122.044,107.67 C 122.03,107.723 122.083,107.738 122.128,107.766 L 122.395,107.848 L 122.581,107.259 L 122.356,107.218"
           style="fill:#003555;fill-opacity:1;fill-rule:nonzero;stroke:none"
           id="path3058" /><path
           d="M 121.848,107.013 L 121.633,107.254 C 121.091,107.963 122.253,106.783 121.618,107.61 C 121.596,107.662 121.467,107.596 121.508,107.629 L 121.593,107.632 L 122.089,107.066 L 121.848,107.013"
           style="fill:#003555;fill-opacity:1;fill-rule:nonzero;stroke:none"
           id="path3060" /><path
           d="M 121.157,106.6 L 120.585,106.923 C 120.526,106.979 120.395,106.965 120.483,107.002 C 121.169,106.902 121.28,106.768 121.28,106.768 L 121.157,106.6"
           style="fill:#003555;fill-opacity:1;fill-rule:nonzero;stroke:none"
           id="path3062" /><path
           d="M 122.796,107.28 C 122.561,107.937 122.86,107.177 122.583,107.776 C 122.637,107.782 122.661,107.947 122.758,107.856 C 123.059,107.151 122.645,108.206 122.971,107.344 L 122.796,107.28"
           style="fill:#003555;fill-opacity:1;fill-rule:nonzero;stroke:none"
           id="path3064" /><path
           d="M 123.253,107.418 C 123.026,108.059 123.243,107.499 123.063,107.846 C 123.108,107.958 123.13,108.033 123.229,107.941 C 123.229,107.941 123.303,107.793 123.448,107.428 L 123.253,107.418"
           style="fill:#003555;fill-opacity:1;fill-rule:nonzero;stroke:none"
           id="path3066" /><path
           d="M 123.641,107.525 C 123.409,108.182 123.641,107.602 123.469,107.936 C 123.514,108.046 123.548,108.107 123.647,108.015 C 123.647,108.015 123.69,107.935 123.837,107.573 L 123.641,107.525"
           style="fill:#003555;fill-opacity:1;fill-rule:nonzero;stroke:none"
           id="path3068" /><path
           d="M 124.055,107.63 C 123.843,108.227 124.212,107.83 124.059,108.124 C 124.104,108.235 123.956,108.208 124.055,108.117 C 124.055,108.117 124.079,108.076 124.231,107.694 L 124.055,107.63"
           style="fill:#003555;fill-opacity:1;fill-rule:nonzero;stroke:none"
           id="path3070" /><path
           d="M 124.483,107.845 C 124.264,108.46 124.651,107.963 124.508,108.241 C 124.553,108.351 124.405,108.325 124.505,108.233 C 124.505,108.233 124.505,108.25 124.651,107.886 L 124.483,107.845"
           style="fill:#003555;fill-opacity:1;fill-rule:nonzero;stroke:none"
           id="path3072" /><path
           d="M 124.911,107.82 C 124.7,108.418 124.999,107.66 124.725,108.253 C 125.446,108.324 124.624,108.589 124.903,108.333 C 125.194,107.643 124.757,108.762 125.089,107.886 L 124.911,107.82"
           style="fill:#003555;fill-opacity:1;fill-rule:nonzero;stroke:none"
           id="path3074" /><path
           d="M 125.309,107.981 C 125.098,108.579 125.327,108.014 125.175,108.309 C 125.227,108.438 125.309,108.431 125.341,108.403 C 125.341,108.403 125.341,108.411 125.487,108.047 L 125.309,107.981"
           style="fill:#003555;fill-opacity:1;fill-rule:nonzero;stroke:none"
           id="path3076" /><path
           d="M 125.694,108.149 C 125.483,108.747 125.731,108.132 125.581,108.427 C 125.626,108.537 125.692,108.612 125.792,108.521 C 125.792,108.521 125.725,108.578 125.872,108.214 L 125.694,108.149"
           style="fill:#003555;fill-opacity:1;fill-rule:nonzero;stroke:none"
           id="path3078" /><path
           d="M 126.218,108.117 C 126.001,108.732 126.184,108.247 126.042,108.525 C 126.087,108.636 126.165,108.696 126.262,108.604 C 126.262,108.604 126.249,108.546 126.395,108.182 L 126.218,108.117"
           style="fill:#003555;fill-opacity:1;fill-rule:nonzero;stroke:none"
           id="path3080" /><path
           d="M 126.593,108.296 C 126.38,108.893 126.587,108.31 126.436,108.605 C 126.481,108.716 126.503,108.791 126.6,108.7 C 126.6,108.7 126.614,108.701 126.761,108.338 L 126.593,108.296"
           style="fill:#003555;fill-opacity:1;fill-rule:nonzero;stroke:none"
           id="path3082" /><path
           d="M 126.968,108.397 C 126.755,108.995 127.108,108.13 126.833,108.722 C 126.889,108.727 126.913,108.893 127.01,108.802 C 127.309,108.096 126.841,109.32 127.169,108.46 L 126.968,108.397"
           style="fill:#003555;fill-opacity:1;fill-rule:nonzero;stroke:none"
           id="path3084" /><path
           d="M 127.407,108.502 C 127.194,109.1 127.436,108.52 127.284,108.815 C 127.329,108.925 127.362,108.985 127.462,108.893 C 127.462,108.893 127.45,108.916 127.596,108.552 L 127.407,108.502"
           style="fill:#003555;fill-opacity:1;fill-rule:nonzero;stroke:none"
           id="path3086" /><path
           d="M 119.571,106.208 C 119.663,106.247 119.403,106.257 119.335,106.323 C 118.593,106.344 119.042,106.043 119.042,106.043 C 119.042,106.043 119.264,106.129 119.571,106.208"
           style="fill:#003555;fill-opacity:1;fill-rule:nonzero;stroke:none"
           id="path3088" /><path
           d="M 118.284,106.733 L 118.442,106.862 C 119.337,107.481 118.143,106.633 118.842,107.114 C 118.878,107.157 118.835,107.193 118.807,107.237 L 118.708,107.259 L 118.139,106.868 L 118.284,106.733"
           style="fill:#003555;fill-opacity:1;fill-rule:nonzero;stroke:none"
           id="path3090" /><path
           d="M 117.364,107.143 L 117.665,107.38 C 117.665,107.38 117.048,106.576 117.587,107.468 C 117.602,107.522 117.548,107.536 117.503,107.565 L 117.391,107.557 L 117.126,107.195 L 117.364,107.143"
           style="fill:#003555;fill-opacity:1;fill-rule:nonzero;stroke:none"
           id="path3092" /><path
           d="M 117.891,106.955 L 117.997,107.052 C 118.542,107.761 117.741,106.582 118.378,107.409 C 118.399,107.461 118.237,107.442 118.196,107.475 L 118.008,107.43 L 117.635,107.021 L 117.891,106.955"
           style="fill:#003555;fill-opacity:1;fill-rule:nonzero;stroke:none"
           id="path3094" /><path
           d="M 118.602,106.44 L 119.214,106.659 C 119.298,106.738 119.165,106.821 119.13,106.837 C 118.628,106.763 118.497,106.621 118.497,106.621 L 118.602,106.44"
           style="fill:#003555;fill-opacity:1;fill-rule:nonzero;stroke:none"
           id="path3096" /><path
           d="M 116.909,107.241 C 117.173,107.987 116.837,107.117 117.049,107.575 C 116.993,107.581 116.969,107.746 116.872,107.654 C 116.573,106.95 117.057,108.166 116.731,107.305 L 116.909,107.241"
           style="fill:#003555;fill-opacity:1;fill-rule:nonzero;stroke:none"
           id="path3098" /><path
           d="M 109.184,109.05 C 109.053,109.342 109.137,109.91 109.089,110.167 C 109.04,110.183 108.987,110.216 108.964,110.151 C 108.907,109.853 108.96,109.314 109.016,109.026 L 109.184,109.05"
           style="fill:#003555;fill-opacity:1;fill-rule:nonzero;stroke:none"
           id="path3100" /><path
           d="M 108.811,109.475 C 108.692,109.736 108.655,110.259 108.618,110.536 C 108.573,110.536 108.52,110.568 108.497,110.503 C 108.45,110.235 108.581,109.659 108.626,109.352 L 108.811,109.475"
           style="fill:#003555;fill-opacity:1;fill-rule:nonzero;stroke:none"
           id="path3102" /><path
           d="M 108.341,109.848 C 108.413,109.952 108.239,110.34 108.212,110.438 C 108.188,110.592 108.198,110.994 108.153,111.073 C 108.014,111.051 108.044,110.806 108.026,110.671 C 108.118,110.509 108.053,109.863 108.251,109.782 L 108.341,109.848"
           style="fill:#003555;fill-opacity:1;fill-rule:nonzero;stroke:none"
           id="path3104" /><path
           d="M 107.94,110.388 C 107.794,110.729 107.77,111.358 107.733,111.676 C 107.692,111.714 107.643,111.73 107.596,111.692 C 107.524,111.35 107.63,110.643 107.794,110.329 L 107.94,110.388"
           style="fill:#003555;fill-opacity:1;fill-rule:nonzero;stroke:none"
           id="path3106" /><path
           d="M 107.44,111.423 C 107.311,111.699 107.389,111.641 107.354,111.905 C 107.309,111.905 107.257,111.937 107.231,111.872 C 107.184,111.595 107.212,111.593 107.255,111.3 L 107.44,111.423"
           style="fill:#003555;fill-opacity:1;fill-rule:nonzero;stroke:none"
           id="path3108" /><path
           d="M 106.108,107.624 L 120.899,127.208 L 107.534,127.208 L 103.606,122.009 L 106.108,107.624"
           style="fill:#fedd0f;fill-opacity:1;fill-rule:nonzero;stroke:none"
           id="path3110" /><path
           d="M 106.176,107.686 L 103.632,122.071 L 86.034,98.771 L 99.387,98.784 L 106.176,107.686"
           style="fill:#ed1248;fill-opacity:1;fill-rule:nonzero;stroke:none"
           id="path3112" /><path
           d="M 111.358,127.257 L 109.147,130.489 C 108.964,130.35 108.788,130.338 108.583,130.233 C 108.28,130.495 108.073,130.887 107.817,131.204 C 107.735,131.375 107.788,131.608 107.977,131.677 C 108.044,131.734 108.128,131.794 108.194,131.852 L 107.423,132.929 C 107.423,133.178 107.712,133.304 107.899,133.425 L 110.469,135.267 L 110.614,135.225 C 110.821,134.85 111.182,134.523 111.438,134.171 C 111.698,134.244 111.829,134.643 112.139,134.525 C 112.307,134.166 112.614,133.87 112.883,133.571 C 112.995,133.279 112.501,133.028 112.487,132.995 L 113.823,131.581 L 111.358,127.257"
           style="fill:#003555;fill-opacity:1;fill-rule:nonzero;stroke:none"
           id="path3114" /><path
           d="M 110.565,134.838 C 110.284,134.568 109.835,134.298 109.536,134.027 C 109.54,133.974 109.561,133.923 109.618,133.891 C 109.993,134.079 110.36,134.503 110.735,134.691 L 110.813,134.608 C 110.512,134.355 110.03,134.047 109.768,133.761 C 109.737,133.706 109.809,133.693 109.848,133.661 L 109.936,133.668 C 110.237,133.886 110.641,134.294 110.969,134.407 C 110.725,134.124 110.243,133.814 109.981,133.529 C 109.968,133.475 110.04,133.445 110.077,133.431 L 111.108,134.206 L 111.204,134.124 C 110.36,133.414 109.167,132.793 108.346,132.049 L 107.794,132.803 C 108.21,133.467 109.973,134.596 110.565,134.838"
           style="fill:#b1cfdb;fill-opacity:1;fill-rule:nonzero;stroke:none"
           id="path3116" /><path
           d="M 112.153,133.983 C 111.831,133.781 111.44,133.444 111.104,133.207 C 111.055,133.149 111.118,133.03 111.206,133.037 C 111.524,133.292 111.954,133.578 112.233,133.846 L 112.331,133.731 L 111.27,132.9 C 111.274,132.848 111.313,132.779 111.386,132.767 C 111.739,133.007 112.108,133.394 112.483,133.583 C 112.581,133.466 112.407,133.434 112.36,133.36 C 111.093,132.602 109.803,131.518 108.628,130.586 C 108.417,130.801 108.235,131.071 108.093,131.326 C 108.989,132.12 110.837,133.699 111.854,134.29 C 111.829,134.278 112.007,134.218 111.948,134.251 C 111.757,134.08 111.042,133.45 111.034,133.431 C 111.093,133.365 111.196,133.39 111.245,133.448 C 111.458,133.677 111.813,133.881 112.036,134.104 C 112.141,134.13 112.096,134.032 112.153,133.983"
           style="fill:#b1cfdb;fill-opacity:1;fill-rule:nonzero;stroke:none"
           id="path3118" /><path
           d="M 111.356,127.755 C 110.753,128.488 109.897,129.856 109.36,130.633 C 110.239,131.408 111.288,132.28 112.272,132.85 C 112.272,132.85 112.403,132.729 112.44,132.697 C 112.141,132.427 111.708,132.092 111.387,131.872 C 111.393,131.802 111.415,131.75 111.469,131.719 C 111.805,131.974 112.257,132.311 112.616,132.498 C 112.762,132.421 112.551,132.404 112.577,132.301 L 111.655,131.608 C 111.608,131.534 111.667,131.468 111.721,131.436 C 112.044,131.62 112.495,131.975 112.813,132.229 C 112.866,132.233 112.942,132.1 112.979,132.068 C 112.704,131.812 112.001,131.226 112.001,131.226 L 112.128,131.055 L 113.139,131.886 L 113.321,131.651 L 112.434,130.761 L 112.653,130.55 L 113.518,131.417 L 111.356,127.755"
           style="fill:#b1cfdb;fill-opacity:1;fill-rule:nonzero;stroke:none"
           id="path3120" /><path
           d="M 127.591,125.908 C 127.909,126.324 130.28,129.772 130.663,130.131 C 130.762,130.034 130.858,129.92 130.983,129.927 L 131.655,130.757 C 131.778,130.941 131.885,131.163 131.61,131.274 L 131.651,131.343 L 131.548,131.369 C 131.688,131.783 132.397,132.462 132.641,132.831 C 132.745,133.017 132.743,133.213 132.557,133.316 C 131.669,133.94 130.794,134.721 129.829,135.281 C 129.641,135.368 129.292,135.352 129.057,135.301 L 128.2,134.167 C 128.091,133.928 127.897,133.943 127.682,133.927 L 127.032,132.917 L 127.077,132.824 C 126.907,132.63 125.276,130.477 125.11,130.302 L 127.591,125.908"
           style="fill:#003555;fill-opacity:1;fill-rule:nonzero;stroke:none"
           id="path3122" /><path
           d="M 132.182,132.747 C 131.813,132.99 131.36,133.446 130.985,133.619 C 130.93,133.589 130.889,133.538 130.901,133.467 L 132.081,132.595 L 132.075,132.525 C 131.641,132.633 131.237,133.243 130.823,133.366 C 130.749,133.337 130.758,133.248 130.79,133.192 C 131.165,133.001 131.567,132.602 131.901,132.344 C 131.88,132.294 131.864,132.206 131.801,132.211 L 130.776,133.033 C 130.723,133.038 130.671,133.024 130.63,132.974 L 130.657,132.866 L 131.682,132.061 L 131.62,131.96 L 130.559,132.767 C 130.505,132.755 130.417,132.762 130.428,132.69 L 130.423,132.62 C 130.76,132.414 131.159,131.946 131.522,131.845 C 131.567,131.752 131.473,131.688 131.432,131.622 C 130.538,132.387 129.458,133.293 128.469,133.941 C 128.503,134.346 128.95,134.611 129.192,134.945 C 130.188,134.365 131.344,133.526 132.182,132.747"
           style="fill:#b1cfdb;fill-opacity:1;fill-rule:nonzero;stroke:none"
           id="path3124" /><path
           d="M 130.622,131.823 C 130.952,131.724 131.233,131.265 131.551,131.026 L 131.491,130.942 C 131.202,131.109 130.805,131.47 130.499,131.62 C 130.462,131.588 130.405,131.557 130.419,131.503 L 131.37,130.776 C 131.38,130.686 131.257,130.678 131.206,130.718 C 130.94,130.935 130.589,131.309 130.298,131.423 C 130.241,131.392 130.237,131.339 130.233,131.286 L 131.161,130.534 C 131.171,130.427 131.044,130.402 130.979,130.461 C 129.882,131.351 128.616,132.291 127.44,133.043 L 127.891,133.768 C 128.839,133.227 129.813,132.529 130.622,131.823"
           style="fill:#b1cfdb;fill-opacity:1;fill-rule:nonzero;stroke:none"
           id="path3126" /><path
           d="M 128.514,127.7 L 127.643,126.566 C 127.643,126.566 126.2,130.47 125.68,130.62 C 126.204,131.374 126.663,131.896 127.292,132.624 C 128.298,131.938 129.581,131.265 130.387,130.33 C 130.387,130.33 130.37,130.165 130.329,130.097 C 130.012,130.337 129.583,130.622 129.288,130.913 C 129.233,130.899 129.163,130.887 129.159,130.835 L 129.169,130.745 L 130.155,129.934 C 130.186,129.88 130.128,129.813 130.071,129.764 C 129.714,129.954 129.358,130.481 128.94,130.569 C 128.885,130.556 128.899,130.502 128.895,130.449 L 129.934,129.616 C 129.966,129.56 129.887,129.496 129.848,129.446 L 128.661,130.397 C 128.639,130.364 128.555,130.425 128.548,130.336 L 128.542,130.248 C 128.907,129.952 129.364,129.593 129.729,129.279 L 129.551,129.041 L 128.739,129.682 L 128.704,129.43 L 129.417,128.869 L 129.272,128.671 L 128.684,129.068 L 128.667,128.779 L 129.145,128.481 L 129.028,128.301 L 128.649,128.508 L 128.63,128.219 L 128.866,128.093 L 128.514,127.7"
           style="fill:#b1cfdb;fill-opacity:1;fill-rule:nonzero;stroke:none"
           id="path3128" /><path
           d="M 120.936,113.551 C 120.971,113.497 120.901,113.338 120.813,113.391 C 120.69,113.427 120.46,113.32 120.424,113.497 C 120.53,113.585 120.831,113.603 120.971,113.551 L 120.936,113.551"
           style="fill:#ffffff;fill-opacity:1;fill-rule:nonzero;stroke:none"
           id="path3130" /><path
           d="M 124.401,113.514 C 124.329,113.462 124.241,113.497 124.171,113.497 C 124.258,113.462 124.311,113.532 124.401,113.514"
           style="fill:#ffffff;fill-opacity:1;fill-rule:nonzero;stroke:none"
           id="path3132" /><path
           d="M 120.971,113.108 L 120.477,113.091 C 120.442,113.126 120.389,113.161 120.407,113.215 C 120.53,113.267 120.778,113.215 120.866,113.338 C 121.007,113.409 121.007,113.178 120.971,113.108"
           style="fill:#ffffff;fill-opacity:1;fill-rule:nonzero;stroke:none"
           id="path3134" /><path
           d="M 113.448,132.004 C 113.448,132.004 113.899,132.093 114.163,132.18 L 116.143,132.446 C 116.337,132.393 116.249,132.128 116.301,132.004 C 117.114,132.145 118.167,132.182 118.794,132.217 L 120.415,132.163 L 121.497,132.14 L 123.926,131.853 L 123.969,132.03 L 126.843,131.721 L 126.753,131.191 L 129.139,130.904 C 128.674,130.684 128.516,125.205 128.782,124.698 L 127.866,124.609 C 127.866,124.609 126.94,121.664 126.094,119.884 L 126.1,119.176 C 126.065,118.946 126.171,118.628 126.065,118.433 C 126.116,118.363 126.116,118.257 126.065,118.186 L 125.86,118.097 C 126.073,116.366 126.575,114.52 127.971,113.389 C 126.93,112.776 125.837,112.281 124.676,111.949 C 121.514,110.446 117.184,110.836 113.987,112.037 C 113.032,112.31 112.327,112.787 111.473,113.309 C 112.87,114.546 113.934,116.525 114.393,118.239 C 114.253,118.345 114.2,118.487 114.075,118.593 L 114.145,119.864 C 113.286,122.251 112.153,124.565 112.153,124.565 L 111.096,124.719 C 111.44,127.393 110.811,130.55 110.725,130.96 L 113.546,131.51 L 113.448,132.004"
           style="fill:#003555;fill-opacity:1;fill-rule:nonzero;stroke:none"
           id="path3136" /><path
           d="M 113.827,131.757 C 114.237,129.602 114.655,127.384 113.952,125.448 C 114.446,125.201 114.87,124.706 115.346,124.405 C 115.753,124.742 116.196,125.042 116.637,125.289 C 116.001,127.41 115.331,129.707 115.842,132.022 C 115.171,131.933 114.481,131.845 113.827,131.757"
           style="fill:#b1cfdb;fill-opacity:1;fill-rule:nonzero;stroke:none"
           id="path3138" /><path
           d="M 118.069,131.827 C 118.069,131.827 116.796,131.668 116.196,131.597 C 115.93,129.477 116.249,127.268 117.079,125.448 C 117.114,125.378 117.008,125.307 117.114,125.255 C 117.044,125.112 117.079,125.007 116.883,125.024 C 116.833,124.883 116.585,124.848 116.444,124.759 C 115.983,124.565 115.719,124.052 115.241,123.928 C 114.782,124.424 114.163,124.901 113.616,125.255 C 113.651,125.642 113.788,125.859 113.823,126.23 C 114.028,127.903 113.874,129.634 113.493,131.053 L 112.223,130.776 L 112.493,129.264 C 112.583,127.542 112.608,126.318 112.507,124.812 C 113.536,123.209 113.669,122.188 114.288,120.97 C 114.411,120.651 114.499,120.377 114.553,120.041 C 116.02,119.918 117.495,119.706 118.926,119.794 L 118.944,120.13 C 119.546,120.254 120.218,120.147 120.87,120.218 C 120.958,120.182 121.03,120.094 121.03,119.988 C 120.905,119.883 121.1,119.794 121.065,119.741 C 122.319,119.811 124.362,119.905 125.633,119.976 L 125.757,120.306 C 124.626,120.218 123.069,120.201 121.973,120.147 L 121.903,120.218 C 121.903,120.271 121.886,120.324 121.938,120.342 C 122.981,120.377 124.413,120.434 125.303,120.467 L 125.805,120.438 L 125.93,120.765 C 124.905,120.695 123.458,120.677 122.38,120.625 L 122.292,120.677 C 122.309,120.73 122.274,120.784 122.327,120.819 L 123.282,120.819 C 124.042,120.765 125.274,121.01 125.999,120.938 L 126.137,121.276 C 125.167,121.223 123.723,121.12 122.768,121.084 C 122.68,121.12 122.628,121.19 122.698,121.261 C 123.616,121.296 125.233,121.383 126.188,121.47 L 126.206,121.435 L 126.329,121.736 C 125.411,121.682 124.094,121.596 123.175,121.579 C 123.051,121.632 123.192,121.72 123.175,121.773 C 124.112,121.755 125.471,121.882 126.424,121.952 L 126.553,122.251 L 123.546,122.003 C 123.475,121.985 123.352,122.003 123.387,122.108 C 124.341,122.339 125.706,122.311 126.659,122.487 L 126.753,122.692 C 125.923,122.657 124.536,122.462 123.741,122.515 C 123.706,122.568 123.706,122.604 123.776,122.638 L 125.243,122.78 C 125.596,122.78 126.489,122.939 126.823,122.886 L 126.983,123.186 C 126.188,123.116 124.784,123.028 123.989,122.992 L 123.989,123.134 C 124.766,123.151 125.542,123.345 126.339,123.398 L 127.073,123.379 L 127.219,123.679 L 124.385,123.487 L 124.333,123.557 C 124.296,123.629 124.35,123.645 124.385,123.699 L 125.915,123.823 C 126.161,123.805 127.1,123.934 127.311,123.864 C 127.436,124.182 127.721,124.677 127.602,124.821 C 127.594,124.818 127.489,124.63 127.479,124.627 C 127.477,124.66 126.048,124.654 125.702,124.62 C 126.055,124.585 127.161,124.715 127.479,124.627 L 127.391,124.446 C 126.962,124.376 125.987,124.483 125.331,124.409 C 125.245,124.399 125.059,124.333 124.995,124.317 C 124.553,124.759 124.042,125.148 123.528,125.448 L 123.511,125.537 C 123.034,125.572 123.44,125.996 123.458,126.208 C 124.288,127.727 124.518,129.76 123.952,131.421 C 123.475,131.527 122.503,131.668 122.503,131.668 C 121.944,131.834 118.598,131.889 118.069,131.827"
           style="fill:#b1cfdb;fill-opacity:1;fill-rule:nonzero;stroke:none"
           id="path3140" /><path
           d="M 124.305,131.668 C 124.712,129.901 124.854,127.939 124.022,126.314 C 123.93,126.108 123.737,125.914 123.688,125.714 C 124.2,125.43 124.696,125.059 125.19,124.688 L 126.161,125.343 C 126.091,127.445 126.055,129.636 126.444,131.597 C 125.702,131.615 125.012,131.65 124.305,131.668"
           style="fill:#b1cfdb;fill-opacity:1;fill-rule:nonzero;stroke:none"
           id="path3142" /><path
           d="M 128.307,130.739 C 127.844,128.743 127.794,126.879 128.007,124.904 L 128.423,124.931 C 128.348,127.052 128.321,128.536 128.674,130.684 L 128.307,130.739"
           style="fill:#b1cfdb;fill-opacity:1;fill-rule:nonzero;stroke:none"
           id="path3144" /><path
           d="M 120.712,119.829 C 120.18,119.883 119.809,119.847 119.262,119.864 L 119.333,117.78 L 120.729,117.762 L 120.712,119.829"
           style="fill:#b1cfdb;fill-opacity:1;fill-rule:nonzero;stroke:none"
           id="path3146" /><path
           d="M 114.516,119.706 L 114.464,118.716 L 114.499,118.663 C 116.126,118.451 117.266,118.309 118.944,118.345 L 118.926,119.37 C 117.337,119.476 116.089,119.6 114.516,119.706"
           style="fill:#b1cfdb;fill-opacity:1;fill-rule:nonzero;stroke:none"
           id="path3148" /><path
           d="M 121.188,119.405 L 121.065,119.511 C 121.03,119.069 121.03,118.61 121.065,118.239 L 121.136,118.327 C 122.407,118.381 124.518,118.363 125.755,118.522 C 125.737,118.84 125.79,119.282 125.719,119.564 C 124.483,119.582 122.372,119.458 121.188,119.405"
           style="fill:#b1cfdb;fill-opacity:1;fill-rule:nonzero;stroke:none"
           id="path3150" /><path
           d="M 114.729,118.239 C 114.534,117.603 114.288,116.949 114.075,116.366 C 117.628,115.112 122.243,115.027 125.901,116.07 L 125.829,116.158 C 125.264,116.034 124.358,115.871 123.794,115.765 L 123.688,115.853 L 123.741,115.942 L 125.79,116.352 L 125.79,116.387 C 125.118,116.3 124.077,116.154 123.405,116.066 C 123.352,116.136 123.352,116.207 123.405,116.278 C 124.005,116.348 125.145,116.41 125.762,116.569 L 125.745,116.639 C 125.04,116.569 123.846,116.454 123.139,116.436 C 123.087,116.472 123.069,116.525 123.087,116.578 C 123.758,116.667 125.065,116.728 125.719,116.834 C 125.719,116.907 125.684,117.011 125.649,117.063 C 124.87,116.958 123.493,116.86 122.68,116.825 C 122.645,116.86 122.592,116.896 122.592,116.949 C 122.61,117.003 122.645,117.038 122.698,117.055 C 123.475,116.984 124.782,117.17 125.596,117.24 C 125.612,117.311 125.577,117.346 125.559,117.417 C 124.571,117.364 123.282,117.197 122.274,117.25 C 122.239,117.32 122.239,117.356 122.274,117.427 C 123.21,117.391 124.641,117.506 125.526,117.63 L 125.503,117.788 C 124.442,117.682 122.911,117.603 121.815,117.567 L 121.762,117.603 C 121.745,117.674 121.69,117.726 121.762,117.78 C 122.821,117.868 124.487,117.758 125.512,118.005 L 125.401,118.106 C 124.288,118.159 122.663,117.991 121.585,117.938 L 121.1,118.027 C 120.925,117.815 121.276,117.585 121.03,117.391 L 119.087,117.391 C 118.786,117.479 119.067,117.762 118.909,117.938 C 117.442,118.01 116.214,118.062 114.729,118.239"
           style="fill:#b1cfdb;fill-opacity:1;fill-rule:nonzero;stroke:none"
           id="path3152" /><path
           d="M 113.868,116.078 C 113.532,115.424 113.182,114.679 112.758,114.079 L 114.311,113.657 L 114.257,113.78 C 114.469,114.452 114.735,115.124 114.823,115.795 L 113.868,116.078"
           style="fill:#b1cfdb;fill-opacity:1;fill-rule:nonzero;stroke:none"
           id="path3154" /><path
           d="M 116.608,115.388 L 115.317,115.688 L 115.247,115.6 C 115.317,115.53 115.512,115.548 115.495,115.388 C 115.407,115.247 115.282,115.388 115.176,115.371 L 115.159,115.3 C 115.282,115.229 115.512,115.282 115.512,115.088 C 115.407,114.928 115.229,115.088 115.089,115.106 C 114.928,114.841 115.335,115.017 115.264,114.77 C 115.194,114.629 115.071,114.77 114.981,114.717 C 114.999,114.557 115.317,114.7 115.317,114.487 C 115.229,114.222 115.053,114.505 114.911,114.434 L 114.911,114.275 L 114.928,114.275 C 115.036,114.258 115.194,114.24 115.159,114.098 C 115.071,113.869 114.928,114.151 114.805,114.028 C 114.717,113.886 114.946,113.94 114.999,113.834 C 114.999,113.463 114.665,113.904 114.575,113.587 C 115.089,113.463 115.583,113.268 116.112,113.268 C 116.167,113.922 116.395,114.541 116.466,115.194 L 116.608,115.388"
           style="fill:#b1cfdb;fill-opacity:1;fill-rule:nonzero;stroke:none"
           id="path3156" /><path
           d="M 125.923,115.694 L 124.889,115.429 L 124.924,115.288 L 126.011,115.487 C 125.975,115.54 125.993,115.659 125.923,115.694"
           style="fill:#b1cfdb;fill-opacity:1;fill-rule:nonzero;stroke:none"
           id="path3158" /><path
           d="M 124.466,115.377 C 124.147,115.341 123.829,115.288 123.511,115.253 C 123.653,114.988 123.969,115.394 124.218,115.165 C 124.165,114.882 123.741,115.041 123.563,114.934 L 123.563,114.864 C 123.653,114.882 123.829,114.829 123.882,114.917 C 124.022,114.882 124.182,114.97 124.305,114.846 C 124.165,114.616 123.864,114.74 123.653,114.652 L 123.653,114.599 C 123.864,114.458 124.182,114.705 124.395,114.563 C 124.358,114.299 123.917,114.44 123.741,114.316 C 123.952,114.104 124.43,114.546 124.501,114.175 C 124.288,114.139 123.989,114.193 123.864,114.015 C 123.811,113.91 123.952,113.927 123.969,113.856 C 124.077,114.087 124.323,114.015 124.501,114.069 C 124.536,113.999 124.641,113.98 124.624,113.892 C 124.413,113.786 124.112,113.84 123.952,113.663 C 124.182,113.486 124.43,113.892 124.676,113.663 C 124.712,113.627 124.712,113.556 124.676,113.539 C 124.872,113.593 125.12,113.609 125.261,113.68 L 124.466,115.377"
           style="fill:#b1cfdb;fill-opacity:1;fill-rule:nonzero;stroke:none"
           id="path3160" /><path
           d="M 116.926,115.353 C 116.909,115.194 117.208,115.3 117.155,115.088 C 117.067,114.981 116.909,115.088 116.837,115.088 L 116.801,114.928 C 116.909,114.965 117.014,114.911 117.102,114.841 C 117.102,114.77 117.085,114.717 117.032,114.681 C 116.926,114.664 116.837,114.7 116.766,114.753 L 116.731,114.611 C 116.819,114.505 117.12,114.646 117.102,114.417 C 116.979,114.258 116.819,114.417 116.696,114.434 L 116.678,114.328 C 116.749,114.222 116.997,114.346 117.014,114.151 C 116.926,113.904 116.766,114.151 116.626,114.151 L 116.608,113.993 C 116.678,114.011 116.731,113.94 116.801,113.974 C 116.872,113.957 116.979,113.904 116.962,113.815 C 116.856,113.675 116.678,113.78 116.555,113.815 C 116.395,113.533 116.784,113.692 116.856,113.551 C 116.872,113.48 116.837,113.427 116.801,113.391 C 116.696,113.374 116.608,113.409 116.52,113.427 L 116.503,113.356 C 116.573,113.356 116.801,113.321 116.784,113.162 C 117.19,113.197 117.614,112.932 118.003,113.056 C 117.932,113.71 118.128,114.541 118.092,115.177 L 116.926,115.353"
           style="fill:#b1cfdb;fill-opacity:1;fill-rule:nonzero;stroke:none"
           id="path3162" /><path
           d="M 126.192,115.137 L 126.108,115.377 C 125.878,115.253 125.313,115.2 125.065,115.094 C 125.048,115.006 125.102,114.953 125.135,114.882 L 126.192,115.137"
           style="fill:#b1cfdb;fill-opacity:1;fill-rule:nonzero;stroke:none"
           id="path3164" /><path
           d="M 123.128,115.194 C 122.757,115.194 122.421,115.106 122.067,115.088 C 122.085,114.805 122.508,115.141 122.686,114.965 C 122.704,114.646 122.262,114.841 122.067,114.717 C 122.137,114.452 122.528,114.805 122.739,114.594 C 122.686,114.328 122.315,114.452 122.102,114.382 C 122.12,114.328 122.085,114.258 122.137,114.204 C 122.333,114.24 122.633,114.346 122.792,114.204 C 122.704,113.94 122.368,114.134 122.137,114.028 L 122.137,113.993 C 122.315,113.745 122.686,114.204 122.882,113.85 L 122.844,113.815 C 122.882,113.798 122.917,113.834 122.934,113.78 L 122.827,113.675 C 122.721,113.869 122.403,113.675 122.19,113.675 L 122.227,113.587 C 122.491,113.498 122.882,113.869 122.952,113.515 C 122.774,113.339 122.473,113.498 122.262,113.391 L 122.262,113.303 C 122.528,113.303 122.757,113.48 122.987,113.339 C 122.969,113.303 123.005,113.25 122.952,113.233 C 123.198,113.303 123.499,113.268 123.712,113.391 C 123.464,113.869 123.411,114.434 123.198,114.928 L 123.128,115.194"
           style="fill:#b1cfdb;fill-opacity:1;fill-rule:nonzero;stroke:none"
           id="path3166" /><path
           d="M 120.001,115.017 L 118.481,115.124 C 118.516,114.981 118.727,115.141 118.782,115 C 118.87,114.681 118.569,114.947 118.481,114.77 C 118.569,114.717 118.782,114.788 118.745,114.594 C 118.675,114.452 118.551,114.575 118.464,114.575 C 118.481,114.452 118.675,114.505 118.762,114.434 C 118.817,114.382 118.782,114.31 118.727,114.275 C 118.622,114.293 118.499,114.24 118.428,114.328 L 118.428,114.187 C 118.587,114.098 118.835,114.275 118.852,114.028 C 118.745,113.85 118.587,114.011 118.409,113.993 C 118.339,113.762 118.639,113.957 118.727,113.834 C 118.8,113.587 118.481,113.727 118.393,113.639 C 118.481,113.587 118.692,113.657 118.692,113.48 C 118.639,113.286 118.464,113.463 118.376,113.391 L 118.376,113.268 C 118.464,113.25 118.604,113.339 118.657,113.215 C 118.675,112.95 118.393,113.18 118.303,113.003 C 118.905,112.968 119.469,112.968 120.089,113.003 L 119.966,113.127 L 120.001,115.017"
           style="fill:#b1cfdb;fill-opacity:1;fill-rule:nonzero;stroke:none"
           id="path3168" /><path
           d="M 120.389,115 C 120.495,114.858 120.848,115.088 120.866,114.788 C 120.778,114.681 120.548,114.734 120.46,114.753 C 120.407,114.717 120.354,114.7 120.389,114.629 L 120.778,114.664 C 120.813,114.664 120.936,114.611 120.936,114.522 C 120.813,114.346 120.477,114.487 120.372,114.434 L 120.372,114.328 C 120.512,114.258 120.743,114.417 120.866,114.24 C 120.848,113.993 120.53,114.151 120.372,114.098 L 120.372,113.974 C 120.565,113.957 120.813,114.011 120.971,113.834 C 120.866,113.639 120.583,113.815 120.372,113.762 C 120.354,113.533 120.424,113.197 120.229,113.003 C 120.796,113.074 121.397,112.95 121.979,113.127 L 121.909,113.18 C 121.803,113.798 121.766,114.469 121.591,115.035 C 121.202,115.052 120.743,115 120.389,115"
           style="fill:#b1cfdb;fill-opacity:1;fill-rule:nonzero;stroke:none"
           id="path3170" /><path
           d="M 126.255,114.943 C 125.936,114.855 125.489,114.811 125.225,114.67 L 125.313,114.511 C 125.596,114.546 126.094,114.63 126.36,114.754 L 126.255,114.943"
           style="fill:#b1cfdb;fill-opacity:1;fill-rule:nonzero;stroke:none"
           id="path3172" /><path
           d="M 126.426,114.524 C 126.091,114.435 125.702,114.475 125.401,114.316 L 125.526,114.087 L 125.579,114.157 L 126.532,114.365 L 126.426,114.524"
           style="fill:#b1cfdb;fill-opacity:1;fill-rule:nonzero;stroke:none"
           id="path3174" /><path
           d="M 126.798,114.064 L 126.673,114.188 L 125.579,113.98 L 125.614,113.733 L 126.798,114.064"
           style="fill:#b1cfdb;fill-opacity:1;fill-rule:nonzero;stroke:none"
           id="path3176" /><path
           d="M 112.542,113.819 L 112.348,113.607 C 112.188,113.554 112.241,113.388 112.048,113.388 L 112.348,113.095 C 115.581,111.452 119.641,110.694 123.227,111.79 C 124.676,112.231 126.073,112.726 127.399,113.45 L 127.116,113.751 C 125.331,113.397 123.616,112.832 121.745,112.779 C 118.458,112.532 115.44,112.776 112.542,113.819"
           style="fill:#b1cfdb;fill-opacity:1;fill-rule:nonzero;stroke:none"
           id="path3178" /><path
           d="M 111.341,130.684 C 111.696,128.536 111.667,127.052 111.593,124.931 L 112.008,124.904 C 112.221,126.868 112.174,128.736 111.708,130.739 L 111.341,130.684"
           style="fill:#b1cfdb;fill-opacity:1;fill-rule:nonzero;stroke:none"
           id="path3180" /><path
           d="M 125.649,126.544 C 125.86,126.314 125.86,125.961 125.772,125.678 C 125.702,125.466 125.489,125.289 125.278,125.236 C 125.03,125.148 124.784,125.255 124.589,125.413 C 124.358,125.642 124.27,126.014 124.413,126.314 C 124.571,126.509 124.747,126.685 124.995,126.739 C 125.261,126.792 125.454,126.685 125.649,126.544"
           style="fill:#003555;fill-opacity:1;fill-rule:nonzero;stroke:none"
           id="path3182" /><path
           d="M 116.036,126.225 C 116.161,125.943 116.126,125.572 115.913,125.343 C 116.026,125.431 115.155,125.124 115.03,125.166 C 114.729,125.343 114.534,125.642 114.589,126.014 C 114.606,126.261 114.782,126.491 115.012,126.579 C 115.383,126.792 115.86,126.614 116.036,126.225"
           style="fill:#003555;fill-opacity:1;fill-rule:nonzero;stroke:none"
           id="path3184" /><path
           d="M 125.514,126.049 C 125.514,125.872 125.425,125.678 125.249,125.625 C 125.001,125.563 124.868,125.678 124.772,125.872 C 124.735,126.067 124.807,126.225 124.966,126.314 C 125.178,126.509 125.495,126.279 125.514,126.049"
           style="fill:#b1cfdb;fill-opacity:1;fill-rule:nonzero;stroke:none"
           id="path3186" /><path
           d="M 115.725,125.961 C 115.743,125.766 115.618,125.608 115.442,125.537 C 115.219,125.537 115.02,125.563 115.001,125.802 C 114.964,126.014 115.071,126.208 115.264,126.261 C 115.495,126.386 115.671,126.137 115.725,125.961"
           style="fill:#b1cfdb;fill-opacity:1;fill-rule:nonzero;stroke:none"
           id="path3188" /><path
           d="M 116.526,132.013 C 116.569,132.055 117.909,132.147 117.909,132.147 L 118.126,133.754 L 116.147,132.61 L 115.901,133.074 L 116.735,135.7 C 116.735,135.7 116.77,135.693 116.889,136.471 C 117.323,139.329 118.372,140.302 118.372,140.302 L 117.321,143.33 L 119.298,143.734 L 121.645,143.083 L 123.716,141.291 L 124.458,137.985 L 124.087,135.236 L 123.809,134.649 L 123.438,134.124 L 123.809,132.796 L 123.964,131.592 L 122.264,133.043 L 122.311,132.024 L 123.508,131.889 C 123.505,131.861 123.565,130.212 123.508,129.633 C 123.317,129.291 122.825,129.442 122.481,129.367 L 122.481,127.486 L 122.348,127.372 L 119.801,127.35 L 117.684,127.372 L 117.551,127.486 L 117.551,129.367 C 117.21,129.442 116.716,129.291 116.526,129.633 C 116.468,130.212 116.526,132.013 116.526,132.013"
           style="fill:#003555;fill-opacity:1;fill-rule:nonzero;stroke:none"
           id="path3190" /><path
           d="M 119.007,143.37 L 119.063,140.58 L 118.723,140.375 L 118.612,140.6 L 117.712,143.112 C 118.046,143.312 118.651,143.436 119.007,143.37"
           style="fill:#b1cfdb;fill-opacity:1;fill-rule:nonzero;stroke:none"
           id="path3192" /><path
           d="M 120.26,143.212 C 120.145,142.461 119.69,140.786 119.69,140.786 L 119.426,140.682 C 119.426,140.682 119.331,142.695 119.298,143.348 C 119.583,143.366 120.04,143.294 120.26,143.212"
           style="fill:#b1cfdb;fill-opacity:1;fill-rule:nonzero;stroke:none"
           id="path3194" /><path
           d="M 121.061,142.944 L 120.542,140.933 L 120.157,140.886 L 120.473,143.174 C 120.622,143.151 121.001,143.009 121.061,142.944"
           style="fill:#b1cfdb;fill-opacity:1;fill-rule:nonzero;stroke:none"
           id="path3196" /><path
           d="M 121.591,142.456 C 121.514,142.094 121.067,140.905 121.067,140.905 L 120.833,140.943 C 120.833,140.943 121.149,142.543 121.174,142.833 C 121.298,142.735 121.591,142.456 121.591,142.456"
           style="fill:#b1cfdb;fill-opacity:1;fill-rule:nonzero;stroke:none"
           id="path3198" /><path
           d="M 122.153,141.717 L 121.678,140.716 L 121.417,140.826 L 121.739,142.302 C 121.842,142.261 122.153,141.717 122.153,141.717"
           style="fill:#b1cfdb;fill-opacity:1;fill-rule:nonzero;stroke:none"
           id="path3200" /><path
           d="M 122.741,141.176 L 122.491,141.608 L 122.917,141.584 L 123.204,141.164 L 122.741,141.176"
           style="fill:#b1cfdb;fill-opacity:1;fill-rule:nonzero;stroke:none"
           id="path3202" /><path
           d="M 122.532,141.038 L 122.118,140.36 L 121.903,140.524 L 122.292,141.438 L 122.532,141.038"
           style="fill:#b1cfdb;fill-opacity:1;fill-rule:nonzero;stroke:none"
           id="path3204" /><path
           d="M 122.862,138.787 C 123.317,137.685 123.827,136.242 123.688,134.998 C 123.665,134.901 123.165,135.104 123.165,135.104 C 122.649,135.381 118.907,136.396 117.563,136.432 L 117.346,136.448 C 117.538,138.063 117.905,140.076 119.71,140.532 C 120.071,140.665 120.887,140.706 121.266,140.573 C 122.141,140.231 122.464,139.47 122.862,138.787"
           style="fill:#b1cfdb;fill-opacity:1;fill-rule:nonzero;stroke:none"
           id="path3206" /><path
           d="M 122.872,140.387 L 122.495,139.938 L 122.354,140.098 L 122.636,140.778 L 122.872,140.387"
           style="fill:#b1cfdb;fill-opacity:1;fill-rule:nonzero;stroke:none"
           id="path3208" /><path
           d="M 123.128,139.829 L 122.718,139.587 L 122.639,139.719 L 122.977,140.166 L 123.128,139.829"
           style="fill:#b1cfdb;fill-opacity:1;fill-rule:nonzero;stroke:none"
           id="path3210" /><path
           d="M 123.292,139.289 L 122.962,139.082 L 122.866,139.235 L 123.182,139.62 L 123.292,139.289"
           style="fill:#b1cfdb;fill-opacity:1;fill-rule:nonzero;stroke:none"
           id="path3212" /><path
           d="M 123.901,135.839 C 123.778,136.551 123.612,137.844 123.055,138.839 L 123.319,139.091 C 123.755,138.094 123.901,135.839 123.901,135.839"
           style="fill:#b1cfdb;fill-opacity:1;fill-rule:nonzero;stroke:none"
           id="path3214" /><path
           d="M 123.475,134.594 L 123.301,134.414 C 122.282,134.877 118.864,135.815 117.145,135.862 L 117.169,136.114 C 119.29,136.089 122.305,135.146 123.475,134.594"
           style="fill:#b1cfdb;fill-opacity:1;fill-rule:nonzero;stroke:none"
           id="path3216" /><path
           d="M 118.544,135.434 C 118.188,135.104 116.928,133.933 116.389,133.523 C 116.636,133.939 116.923,135.145 117.075,135.638 L 118.544,135.434"
           style="fill:#b1cfdb;fill-opacity:1;fill-rule:nonzero;stroke:none"
           id="path3218" /><path
           d="M 119.12,135.306 C 119.12,135.306 117.618,133.729 116.801,133.17 C 116.063,132.665 116.272,133.12 116.272,133.12 L 118.833,135.371 L 119.12,135.306"
           style="fill:#b1cfdb;fill-opacity:1;fill-rule:nonzero;stroke:none"
           id="path3220" /><path
           d="M 120.632,134.971 C 120.632,134.971 120.575,134.757 120.503,134.637 C 120.503,134.497 120.348,134.723 120.071,135.008 C 119.54,134.485 119.577,134.666 119.577,134.666 C 119.577,134.666 119.178,135.084 119.311,135.311 C 119.608,135.221 120.43,135.067 120.632,134.971"
           style="fill:#b1cfdb;fill-opacity:1;fill-rule:nonzero;stroke:none"
           id="path3222" /><path
           d="M 123.108,134.238 L 123.354,133.177 L 121.655,134.713 L 123.108,134.238"
           style="fill:#b1cfdb;fill-opacity:1;fill-rule:nonzero;stroke:none"
           id="path3224" /><path
           d="M 119.387,133.982 C 119.425,132.548 119.292,130.953 119.387,129.537 C 119.52,129.386 119.69,129.537 119.862,129.537 C 120.846,130.022 121.237,132.325 120.936,133.953 L 120.887,134.172 L 121.95,133.221 C 122.026,132.329 122.046,130.449 122.046,130.449 L 121.229,130.337 L 121.229,128.815 C 120.526,128.644 119.69,128.721 118.968,128.739 C 118.93,129.271 119.044,129.822 118.874,130.316 L 118.075,130.411 C 118.104,131.019 118.247,131.608 118.247,132.234 C 118.493,132.975 118.075,134.152 119.139,134.419 C 119.311,134.266 119.292,134.248 119.387,133.982"
           style="fill:#b1cfdb;fill-opacity:1;fill-rule:nonzero;stroke:none"
           id="path3226" /><path
           d="M 123.147,129.88 C 122.805,129.69 122.13,129.916 122.046,129.5 C 122.143,128.979 121.991,128.389 122.046,127.829 C 121.458,127.734 120.907,127.677 120.337,127.753 C 119.633,127.677 118.76,127.753 117.981,127.753 L 117.905,129.709 C 117.583,129.785 117.204,129.803 116.919,129.936 L 116.956,131.659 C 117.106,131.715 117.507,131.73 117.86,131.778 L 117.772,130.184 C 118.114,130.052 118.303,130.145 118.665,130.07 C 118.78,129.576 118.704,128.987 118.721,128.436 C 119.596,128.342 120.684,128.353 121.557,128.449 L 121.526,130.026 L 122.141,130.145 C 122.141,130.145 122.313,130.203 122.294,130.279 C 122.274,130.792 122.313,131.206 122.255,131.7 L 123.147,131.538 L 123.147,129.88"
           style="fill:#b1cfdb;fill-opacity:1;fill-rule:nonzero;stroke:none"
           id="path3228" /><path
           d="M 122.372,141.795 L 121.837,142.559 L 122.05,142.441 L 122.741,141.783 L 122.372,141.795"
           style="fill:#b1cfdb;fill-opacity:1;fill-rule:nonzero;stroke:none"
           id="path3230" /><path
           d="M 123.096,140.477 L 122.882,140.909 L 123.366,140.862 L 123.548,140.466 L 123.096,140.477"
           style="fill:#b1cfdb;fill-opacity:1;fill-rule:nonzero;stroke:none"
           id="path3232" /><path
           d="M 123.37,139.848 L 123.202,140.21 L 123.688,140.162 L 123.772,139.765 L 123.37,139.848"
           style="fill:#b1cfdb;fill-opacity:1;fill-rule:nonzero;stroke:none"
           id="path3234" /><path
           d="M 123.571,139.266 L 123.442,139.63 L 123.844,139.583 L 123.903,139.207 L 123.571,139.266"
           style="fill:#b1cfdb;fill-opacity:1;fill-rule:nonzero;stroke:none"
           id="path3236" /><path
           d="M 123.714,138.661 L 123.594,139.094 L 123.948,138.987 C 124.053,138.741 124.057,137.261 124.057,137.261 L 123.714,138.661"
           style="fill:#b1cfdb;fill-opacity:1;fill-rule:nonzero;stroke:none"
           id="path3238" /><path
           d="M 120.126,131.587 C 120.049,131.719 119.954,131.973 120.239,131.973 L 120.286,131.945 C 120.395,131.731 120.657,131.327 120.755,131.76 C 120.85,132.192 120.204,132.216 120.089,132.634 C 120.012,132.766 119.919,133.02 120.204,133.02 C 120.43,132.835 120.585,132.159 120.755,132.671 C 120.919,133.173 119.827,133.292 120.001,134.044 C 120.001,134.044 120.094,134.242 120.21,134.044 C 120.395,133.725 120.596,133.523 120.602,133.735 C 120.606,133.946 120.655,134.321 120.469,134.286 C 120.206,134.236 120.151,134.825 120.065,134.633 C 119.967,134.414 119.647,134.414 119.653,134.343 L 119.577,129.898 C 119.647,129.749 119.823,129.88 119.823,129.88 L 119.954,130.001 C 120.751,130.419 119.628,130.594 119.989,131.088 C 120.046,131.088 120.102,131.126 120.141,131.069 C 120.218,130.973 120.298,130.925 120.298,130.925 C 120.298,130.925 120.491,130.829 120.546,131.038 C 120.6,131.247 120.243,131.394 120.13,131.584 L 120.126,131.587"
           style="fill:#b1cfdb;fill-opacity:1;fill-rule:nonzero;stroke:none"
           id="path3240" /><path
           d="M 123.52,132.695 L 121.335,134.784 L 120.87,134.936 L 123.766,131.992 L 123.52,132.695"
           style="fill:#b1cfdb;fill-opacity:1;fill-rule:nonzero;stroke:none"
           id="path3242" /><path
           d="M 121.893,140.226 C 121.636,140.254 121.473,140.444 121.124,140.427 C 121.075,140.409 121.104,140.356 121.11,140.328 C 121.391,140.147 121.813,140.125 122.124,140.045 L 121.893,140.226"
           style="fill:#003555;fill-opacity:1;fill-rule:nonzero;stroke:none"
           id="path3244" /><path
           d="M 122.264,139.855 C 122.264,139.855 121.604,139.992 121.341,139.879 C 121.575,139.749 122.106,139.637 122.397,139.653 L 122.264,139.855"
           style="fill:#003555;fill-opacity:1;fill-rule:nonzero;stroke:none"
           id="path3246" /><path
           d="M 122.54,139.403 C 122.307,139.346 121.928,139.489 121.565,139.489 C 121.54,139.444 121.499,139.398 121.557,139.362 C 121.841,139.251 122.38,139.204 122.673,139.206 L 122.54,139.403"
           style="fill:#003555;fill-opacity:1;fill-rule:nonzero;stroke:none"
           id="path3248" /><path
           d="M 122.803,139.011 C 122.589,138.956 122.087,138.998 121.725,139.015 C 121.718,138.973 121.676,138.926 121.735,138.89 C 121.999,138.791 122.594,138.817 122.891,138.806 L 122.803,139.011"
           style="fill:#003555;fill-opacity:1;fill-rule:nonzero;stroke:none"
           id="path3250" /><path
           d="M 123.061,138.484 C 122.971,138.573 122.001,138.586 121.823,138.525 C 121.819,138.386 122.063,138.368 122.194,138.325 C 122.372,138.386 122.993,138.202 123.11,138.382 L 123.061,138.484"
           style="fill:#003555;fill-opacity:1;fill-rule:nonzero;stroke:none"
           id="path3252" /><path
           d="M 123.198,138.031 C 122.919,137.968 122.303,138.038 121.895,138.065 C 121.85,138.032 121.825,137.988 121.854,137.934 C 122.176,137.8 122.889,137.772 123.229,137.877 L 123.198,138.031"
           style="fill:#003555;fill-opacity:1;fill-rule:nonzero;stroke:none"
           id="path3254" /><path
           d="M 123.389,137.462 C 123.809,137.638 121.538,137.606 121.805,137.604 L 121.825,137.509 C 122.217,137.367 123.008,137.335 123.428,137.307 L 123.389,137.462"
           style="fill:#003555;fill-opacity:1;fill-rule:nonzero;stroke:none"
           id="path3256" /><path
           d="M 123.511,136.973 C 123.114,136.974 122.214,137.087 121.823,137.214 C 121.757,137.207 121.788,137.14 121.8,137.086 C 122.186,136.971 123.122,136.821 123.567,136.839 L 123.511,136.973"
           style="fill:#003555;fill-opacity:1;fill-rule:nonzero;stroke:none"
           id="path3258" /><path
           d="M 123.626,136.52 C 123.194,136.475 122.206,136.672 121.702,136.791 C 121.657,136.759 121.669,136.704 121.71,136.679 C 122.163,136.573 123.163,136.309 123.661,136.318 L 123.626,136.52"
           style="fill:#003555;fill-opacity:1;fill-rule:nonzero;stroke:none"
           id="path3260" /><path
           d="M 123.716,136.061 C 124.01,136.091 121.428,136.485 121.604,136.424 C 121.555,136.405 121.585,136.352 121.591,136.325 C 122.325,136.142 123.071,135.95 123.729,135.859 L 123.716,136.061"
           style="fill:#003555;fill-opacity:1;fill-rule:nonzero;stroke:none"
           id="path3262" /><path
           d="M 123.762,135.53 C 124.122,135.524 121.352,136.108 121.507,136.044 C 121.452,136.051 121.432,135.975 121.423,135.946 C 122.255,135.661 122.952,135.469 123.778,135.276 L 123.762,135.53"
           style="fill:#003555;fill-opacity:1;fill-rule:nonzero;stroke:none"
           id="path3264" /><path
           d="M 126.71,130.927 C 126.657,130.714 126.622,130.431 126.673,130.219 C 126.489,128.91 126.555,126.35 126.589,125.405 C 126.591,125.35 126.553,125.216 126.553,125.216 C 126.3,124.962 125.663,124.625 125.663,124.625 L 126.835,124.651 L 127.479,124.627 L 127.602,124.821 C 127.548,125.315 127.442,126.067 127.46,126.544 C 127.372,127.958 127.716,129.336 127.911,130.802 L 126.71,130.927"
           style="fill:#b1cfdb;fill-opacity:1;fill-rule:nonzero;stroke:none"
           id="path3266" /><path
           d="M 127.471,124.128 C 126.817,124.057 125.366,123.957 124.729,124.045 C 124.747,124.151 124.87,124.151 124.942,124.151 C 125.69,124.171 126.948,124.252 127.536,124.252 L 127.471,124.128"
           style="fill:#003555;fill-opacity:1;fill-rule:nonzero;stroke:none"
           id="path3268" /><path
           d="M 127.682,125.065 L 126.022,125.069 C 126.014,125.027 125.926,124.926 125.985,124.89 C 125.985,124.89 127.303,124.887 127.598,124.876 L 127.682,125.065"
           style="fill:#003555;fill-opacity:1;fill-rule:nonzero;stroke:none"
           id="path3270" /><path
           d="M 127.723,125.51 C 127.501,125.384 127.026,125.428 126.843,125.433 C 126.843,125.433 126.641,125.289 126.794,125.244 C 127.016,125.223 127.811,125.286 127.811,125.286 L 127.723,125.51"
           style="fill:#003555;fill-opacity:1;fill-rule:nonzero;stroke:none"
           id="path3272" /><path
           d="M 127.688,124.637 L 126.553,124.606 C 126.546,124.563 126.249,124.469 126.309,124.432 C 126.309,124.432 127.358,124.441 127.653,124.431 L 127.688,124.637"
           style="fill:#003555;fill-opacity:1;fill-rule:nonzero;stroke:none"
           id="path3274" /><path
           d="M 127.749,125.865 L 127.171,125.86 C 127.163,125.817 127.01,125.749 127.071,125.714 C 127.071,125.714 127.37,125.688 127.667,125.676 L 127.749,125.865"
           style="fill:#003555;fill-opacity:1;fill-rule:nonzero;stroke:none"
           id="path3276" /><path
           d="M 107.137,109.014 L 106.354,109.589 L 107.112,110.763 L 107.647,110.516 L 114.339,119.288 C 114.376,119.297 114.46,119.13 114.567,118.845 L 107.137,109.014"
           style="fill:#003555;fill-opacity:1;fill-rule:nonzero;stroke:none"
           id="path3278" /><path
           d="M 114.368,118.562 C 114.368,118.562 108.319,111.083 107.794,110.329 C 107.819,110.303 107.887,110.249 108.014,110.143 L 114.368,118.562"
           style="fill:#fedd0f;fill-opacity:1;fill-rule:nonzero;stroke:none"
           id="path3280" /><path
           d="M 107.313,109.183 C 107.081,109.344 106.817,109.485 106.637,109.6 L 107.089,110.324 C 107.255,110.23 107.516,110.064 107.821,109.853 L 107.313,109.183"
           style="fill:#fedd0f;fill-opacity:1;fill-rule:nonzero;stroke:none"
           id="path3282" /><path
           d="M 111.182,127.218 C 111.216,126.401 111.202,125.538 111.096,124.719 L 112.153,124.565 C 112.153,124.565 113.286,122.251 114.145,119.864 L 114.075,118.593 C 114.133,118.543 114.175,118.485 114.218,118.428 L 120.899,127.208 L 111.182,127.218"
           style="fill:#003555;fill-opacity:1;fill-rule:nonzero;stroke:none"
           id="path3284" /><path
           d="M 115.409,119.962 C 115.124,119.99 114.839,120.017 114.553,120.041 C 114.499,120.377 114.411,120.651 114.288,120.97 C 113.669,122.188 113.536,123.209 112.507,124.812 C 112.563,125.656 112.581,126.413 112.569,127.218 L 120.899,127.208 L 115.409,119.962"
           style="fill:#fedd0f;fill-opacity:1;fill-rule:nonzero;stroke:none"
           id="path3286" /><path
           d="M 115.167,119.659 C 114.956,119.676 114.739,119.69 114.516,119.706 L 114.464,118.716"
           style="fill:#fedd0f;fill-opacity:1;fill-rule:nonzero;stroke:none"
           id="path3288" /><path
           d="M 111.639,127.218 C 111.645,126.501 111.622,125.765 111.593,124.931 L 112.008,124.904 C 112.094,125.685 112.137,126.452 112.13,127.218 L 111.639,127.218"
           style="fill:#fedd0f;fill-opacity:1;fill-rule:nonzero;stroke:none"
           id="path3290" /><path
           d="M 110.118,112.9 C 109.737,112.922 109.376,112.945 109.182,112.967 L 108.499,113.078 C 107.985,113.191 106.385,113.507 105.891,113.675 C 106.309,112.747 107.169,111.279 107.979,110.042"
           style="fill:#003555;fill-opacity:1;fill-rule:nonzero;stroke:none"
           id="path3292" /><path
           d="M 108.218,110.35 C 107.721,111.042 107.237,111.773 106.803,112.509 L 106.823,112.532 C 107.46,112.027 108.175,111.591 108.854,111.209 L 108.218,110.35"
           style="fill:#fedd0f;fill-opacity:1;fill-rule:nonzero;stroke:none"
           id="path3294" /><path
           d="M 109.835,112.506 C 108.772,112.596 107.633,112.764 106.747,113.048 C 107.122,112.662 107.979,112.114 109.075,111.534 L 109.835,112.506"
           style="fill:#fedd0f;fill-opacity:1;fill-rule:nonzero;stroke:none"
           id="path3296" /><path
           d="M 116.462,127.218 C 116.618,126.6 116.825,126.006 117.079,125.448 C 117.114,125.378 117.008,125.307 117.114,125.255 C 117.044,125.112 117.079,125.007 116.883,125.024 C 116.833,124.883 116.585,124.848 116.444,124.759 C 115.983,124.565 115.719,124.052 115.241,123.928 C 114.782,124.424 114.163,124.901 113.616,125.255 C 113.651,125.642 113.788,125.859 113.823,126.23 C 113.864,126.557 113.889,126.889 113.903,127.218 L 116.462,127.218"
           style="fill:#003555;fill-opacity:1;fill-rule:nonzero;stroke:none"
           id="path3298" /><path
           d="M 114.309,127.218 C 114.268,126.609 114.159,126.016 113.952,125.448 C 114.446,125.201 114.87,124.706 115.346,124.405 C 115.753,124.742 116.196,125.042 116.637,125.289 C 116.448,125.919 116.257,126.561 116.094,127.218 L 114.309,127.218"
           style="fill:#fedd0f;fill-opacity:1;fill-rule:nonzero;stroke:none"
           id="path3300" /><path
           d="M 116.036,126.225 C 116.161,125.943 116.126,125.572 115.913,125.343 C 116.026,125.431 115.383,125.004 115.03,125.166 C 114.729,125.343 114.534,125.642 114.589,126.014 C 114.606,126.261 114.782,126.491 115.012,126.579 C 115.383,126.792 115.86,126.614 116.036,126.225"
           style="fill:#003555;fill-opacity:1;fill-rule:nonzero;stroke:none"
           id="path3302" /><path
           d="M 115.725,125.961 C 115.743,125.766 115.618,125.608 115.442,125.537 C 115.219,125.537 115.02,125.563 115.001,125.802 C 114.964,126.014 115.071,126.208 115.264,126.261 C 115.495,126.386 115.671,126.137 115.725,125.961"
           style="fill:#fedd0f;fill-opacity:1;fill-rule:nonzero;stroke:none"
           id="path3304" /><path
           d="M 109.184,109.05 C 109.053,109.342 109.137,109.91 109.089,110.167 C 109.04,110.183 108.987,110.216 108.964,110.151 C 108.907,109.853 108.96,109.314 109.016,109.026 L 109.184,109.05"
           style="fill:#003555;fill-opacity:1;fill-rule:nonzero;stroke:none"
           id="path3306" /><path
           d="M 108.811,109.475 C 108.692,109.736 108.655,110.259 108.618,110.536 C 108.573,110.536 108.52,110.568 108.497,110.503 C 108.45,110.235 108.581,109.659 108.626,109.352 L 108.811,109.475"
           style="fill:#003555;fill-opacity:1;fill-rule:nonzero;stroke:none"
           id="path3308" /><path
           d="M 108.341,109.848 C 108.413,109.952 108.239,110.34 108.212,110.438 C 108.188,110.592 108.198,110.994 108.153,111.073 C 108.014,111.051 108.044,110.806 108.026,110.671 C 108.118,110.509 108.053,109.863 108.251,109.782 L 108.341,109.848"
           style="fill:#003555;fill-opacity:1;fill-rule:nonzero;stroke:none"
           id="path3310" /><path
           d="M 107.94,110.388 C 107.794,110.729 107.77,111.358 107.733,111.676 C 107.692,111.714 107.643,111.73 107.596,111.692 C 107.524,111.35 107.63,110.643 107.794,110.329 L 107.94,110.388"
           style="fill:#003555;fill-opacity:1;fill-rule:nonzero;stroke:none"
           id="path3312" /><path
           d="M 107.44,111.423 C 107.311,111.699 107.389,111.641 107.354,111.905 C 107.309,111.905 107.257,111.937 107.231,111.872 C 107.184,111.595 107.212,111.593 107.255,111.3 L 107.44,111.423"
           style="fill:#003555;fill-opacity:1;fill-rule:nonzero;stroke:none"
           id="path3314" /><path
           d="M 115.419,131.174 C 115.454,131.067 115.313,131.067 115.258,131.05 C 115.022,131.065 114.565,130.94 114.428,131.014 C 114.712,131.156 115.065,131.209 115.401,131.244 L 115.419,131.174"
           style="fill:#003555;fill-opacity:1;fill-rule:nonzero;stroke:none"
           id="path3316" /><path
           d="M 125.932,130.89 C 125.932,130.838 125.932,130.802 125.88,130.785 C 125.561,130.82 125.208,130.785 124.907,130.89 L 124.942,130.979 C 125.261,130.909 125.684,131.014 125.932,130.89"
           style="fill:#003555;fill-opacity:1;fill-rule:nonzero;stroke:none"
           id="path3318" /><path
           d="M 115.241,130.503 C 115.258,130.307 114.995,130.431 114.887,130.378 C 114.817,130.36 114.799,130.378 114.747,130.396 C 114.817,130.573 115.1,130.537 115.241,130.503"
           style="fill:#003555;fill-opacity:1;fill-rule:nonzero;stroke:none"
           id="path3320" /><path
           d="M 125.755,130.237 C 125.542,130.149 125.313,130.219 125.102,130.272 L 125.135,130.378 C 125.348,130.36 125.667,130.414 125.755,130.237"
           style="fill:#003555;fill-opacity:1;fill-rule:nonzero;stroke:none"
           id="path3322" /><path
           d="M 115.401,129.813 C 115.436,129.743 115.313,129.724 115.258,129.707 L 114.905,129.689 C 114.835,129.884 115.153,129.848 115.258,129.884 C 115.313,129.866 115.383,129.884 115.401,129.813"
           style="fill:#003555;fill-opacity:1;fill-rule:nonzero;stroke:none"
           id="path3324" /><path
           d="M 125.596,129.689 C 125.649,129.619 125.561,129.53 125.489,129.53 C 125.419,129.583 125.278,129.495 125.243,129.619 C 125.243,129.848 125.471,129.672 125.596,129.689"
           style="fill:#003555;fill-opacity:1;fill-rule:nonzero;stroke:none"
           id="path3326" /><path
           d="M 115.559,127.923 C 115.489,127.763 115.223,127.851 115.1,127.816 C 115.065,127.834 115.083,127.887 115.083,127.923 C 115.206,127.939 115.383,127.993 115.524,127.975 L 115.559,127.923"
           style="fill:#003555;fill-opacity:1;fill-rule:nonzero;stroke:none"
           id="path3328" /><path
           d="M 125.561,127.657 C 125.401,127.622 125.19,127.622 125.102,127.746 C 125.225,127.887 125.383,127.763 125.526,127.763 C 125.579,127.746 125.542,127.692 125.561,127.657"
           style="fill:#003555;fill-opacity:1;fill-rule:nonzero;stroke:none"
           id="path3330" /><path
           d="M 115.86,127.198 C 115.895,127.074 115.737,127.092 115.665,127.092 L 114.94,127.003 L 114.887,127.092 C 115.136,127.251 115.542,127.198 115.842,127.233 L 115.86,127.198"
           style="fill:#003555;fill-opacity:1;fill-rule:nonzero;stroke:none"
           id="path3332" /><path
           d="M 125.737,127.092 C 125.737,127.003 125.632,127.021 125.561,127.003 L 124.729,127.074 L 124.747,127.216 C 125.083,127.18 125.454,127.198 125.737,127.092"
           style="fill:#003555;fill-opacity:1;fill-rule:nonzero;stroke:none"
           id="path3334" /></g><g
         id="g5003"><path
           d="M 84.94,86.323 L 87.16,86.323 C 89.29,86.323 90.29,85.603 90.29,84.033 C 90.29,82.623 89.26,81.783 87.52,81.783 L 86.8,81.783 L 86.8,79.343 L 84.94,79.343 L 84.94,86.323 z M 86.8,83.103 L 87.28,83.103 C 87.92,83.103 88.43,83.333 88.43,84.063 C 88.43,84.773 87.92,85.003 87.28,85.003 L 86.8,85.003 L 86.8,83.103"
           style="fill:#003555;fill-opacity:1;fill-rule:nonzero;stroke:none"
           id="path3336" /><path
           d="M 94.39,86.443 C 96.69,86.443 97.89,85.073 97.89,82.833 C 97.89,80.613 96.67,79.223 94.39,79.223 C 92.11,79.223 90.89,80.613 90.89,82.833 C 90.89,85.073 92.09,86.443 94.39,86.443 z M 94.39,80.603 C 95.52,80.603 95.97,81.683 95.97,82.833 C 95.97,84.043 95.52,85.063 94.39,85.063 C 93.26,85.063 92.81,84.043 92.81,82.833 C 92.81,81.683 93.26,80.603 94.39,80.603"
           style="fill:#003555;fill-opacity:1;fill-rule:nonzero;stroke:none"
           id="path3338" /><path
           d="M 98.93,86.323 L 100.79,86.323 L 100.79,80.723 L 103.67,80.723 L 103.67,79.343 L 98.93,79.343 L 98.93,86.323"
           style="fill:#003555;fill-opacity:1;fill-rule:nonzero;stroke:none"
           id="path3340" /><path
           d="M 105.421,81.973 L 102.842,86.323 L 104.981,86.323 L 106.351,83.523 L 107.701,86.323 L 109.842,86.323 L 107.282,81.973 L 107.282,79.343 L 105.421,79.343 L 105.421,81.973"
           style="fill:#003555;fill-opacity:1;fill-rule:nonzero;stroke:none"
           id="path3342" /><path
           d="M 111.801,84.943 L 110.081,84.943 L 110.081,86.323 L 115.381,86.323 L 115.381,84.943 L 113.661,84.943 L 113.661,79.343 L 111.801,79.343 L 111.801,84.943"
           style="fill:#003555;fill-opacity:1;fill-rule:nonzero;stroke:none"
           id="path3344" /><path
           d="M 116.111,86.323 L 121.031,86.323 L 121.031,85.003 L 117.971,85.003 L 117.971,83.563 L 120.861,83.563 L 120.861,82.243 L 117.971,82.243 L 117.971,80.663 L 121.141,80.663 L 121.141,79.343 L 116.111,79.343 L 116.111,86.323"
           style="fill:#003555;fill-opacity:1;fill-rule:nonzero;stroke:none"
           id="path3346" /><path
           d="M 128.091,79.503 C 127.561,79.373 126.971,79.223 126.021,79.223 C 124.161,79.223 122.011,80.163 122.011,82.803 C 122.011,85.233 123.711,86.443 126.011,86.443 C 126.721,86.443 127.411,86.283 128.081,86.083 L 127.931,84.573 C 127.331,84.903 126.751,85.063 126.111,85.063 C 124.791,85.063 123.931,84.103 123.931,82.803 C 123.931,81.433 124.901,80.603 126.261,80.603 C 126.871,80.603 127.491,80.763 128.001,80.963 L 128.091,79.503"
           style="fill:#003555;fill-opacity:1;fill-rule:nonzero;stroke:none"
           id="path3348" /><path
           d="M 128.941,86.323 L 130.801,86.323 L 130.801,83.653 L 133.001,83.653 L 133.001,86.323 L 134.861,86.323 L 134.861,79.343 L 133.001,79.343 L 133.001,82.333 L 130.801,82.333 L 130.801,79.343 L 128.941,79.343 L 128.941,86.323"
           style="fill:#003555;fill-opacity:1;fill-rule:nonzero;stroke:none"
           id="path3350" /><path
           d="M 136.191,86.323 L 138.561,86.323 L 140.921,81.583 L 140.941,81.583 L 140.911,86.323 L 142.611,86.323 L 142.611,79.343 L 140.301,79.343 L 137.861,84.113 L 137.841,84.113 L 137.901,79.343 L 136.191,79.343 L 136.191,86.323"
           style="fill:#003555;fill-opacity:1;fill-rule:nonzero;stroke:none"
           id="path3352" /><path
           d="M 144.03,79.343 L 145.8904,79.343 L 145.8904,86.323 L 144.03,86.323 L 144.03,79.343 z"
           style="fill:#003555;fill-opacity:1;fill-rule:nonzero;stroke:none"
           id="path3354" /><path
           d="M 150.621,79.223 L 150.521,79.223 C 148.24,79.223 147.021,80.613 147.021,82.833 C 147.021,85.073 148.221,86.443 150.521,86.443 C 152.821,86.443 154.021,85.073 154.021,82.833 C 154.021,81.263 153.41,80.103 152.24,79.573 L 153.891,78.023 L 151.791,78.023 L 150.621,79.223 z M 150.521,80.603 C 151.651,80.603 152.101,81.683 152.101,82.833 C 152.101,84.043 151.651,85.063 150.521,85.063 C 149.391,85.063 148.941,84.043 148.941,82.833 C 148.941,81.683 149.391,80.603 150.521,80.603"
           style="fill:#003555;fill-opacity:1;fill-rule:nonzero;stroke:none"
           id="path3356" /><path
           d="M 161.081,81.993 C 161.081,80.083 159.841,79.223 158.021,79.223 C 156.2,79.223 154.961,80.083 154.961,81.993 L 154.961,86.323 L 156.821,86.323 L 156.821,82.303 C 156.821,81.383 157.07,80.603 158.021,80.603 C 158.971,80.603 159.221,81.383 159.221,82.303 L 159.221,86.323 L 161.081,86.323 L 161.081,81.993"
           style="fill:#003555;fill-opacity:1;fill-rule:nonzero;stroke:none"
           id="path3358" /><path
           d="M 162.231,86.323 L 167.151,86.323 L 167.151,85.003 L 164.091,85.003 L 164.091,83.563 L 166.981,83.563 L 166.981,82.243 L 164.091,82.243 L 164.091,80.663 L 167.261,80.663 L 167.261,79.343 L 162.231,79.343 L 162.231,86.323"
           style="fill:#003555;fill-opacity:1;fill-rule:nonzero;stroke:none"
           id="path3360" /></g><g
         id="g4996"><path
           d="M 74.863,95.891 L 79.783,95.891 L 79.783,94.572 L 76.722,94.572 L 76.722,93.132 L 79.613,93.132 L 79.613,91.811 L 76.722,91.811 L 76.722,90.231 L 79.892,90.231 L 79.892,88.911 L 74.863,88.911 L 74.863,95.891 z M 77.182,97.701 L 79.052,97.701 L 77.762,96.261 L 76.502,96.261 L 77.182,97.701"
           style="fill:#003555;fill-opacity:1;fill-rule:nonzero;stroke:none"
           id="path3362" /><path
           d="M 86.842,89.072 C 86.312,88.941 85.722,88.791 84.772,88.791 C 82.912,88.791 80.762,89.731 80.762,92.371 C 80.762,94.802 82.462,96.012 84.762,96.012 C 85.472,96.012 86.162,95.851 86.832,95.652 L 86.682,94.141 C 86.082,94.471 85.502,94.632 84.862,94.632 C 83.542,94.632 82.682,93.671 82.682,92.371 C 82.682,91.001 83.653,90.171 85.012,90.171 C 85.622,90.171 86.242,90.331 86.752,90.531 L 86.842,89.072"
           style="fill:#003555;fill-opacity:1;fill-rule:nonzero;stroke:none"
           id="path3364" /><path
           d="M 90.932,96.012 C 93.232,96.012 94.432,94.641 94.432,92.402 C 94.432,90.181 93.212,88.791 90.932,88.791 C 88.652,88.791 87.432,90.181 87.432,92.402 C 87.432,94.641 88.632,96.012 90.932,96.012 z M 90.932,90.171 C 92.062,90.171 92.512,91.251 92.512,92.402 C 92.512,93.612 92.062,94.632 90.932,94.632 C 89.802,94.632 89.352,93.612 89.352,92.402 C 89.352,91.251 89.802,90.171 90.932,90.171"
           style="fill:#003555;fill-opacity:1;fill-rule:nonzero;stroke:none"
           id="path3366" /><path
           d="M 95.472,95.891 L 97.332,95.891 L 97.332,90.291 L 100.212,90.291 L 100.212,88.911 L 95.472,88.911 L 95.472,95.891"
           style="fill:#003555;fill-opacity:1;fill-rule:nonzero;stroke:none"
           id="path3368" /><path
           d="M 100.982,95.891 L 105.902,95.891 L 105.902,94.572 L 102.842,94.572 L 102.842,93.132 L 105.732,93.132 L 105.732,91.811 L 102.842,91.811 L 102.842,90.231 L 106.012,90.231 L 106.012,88.911 L 100.982,88.911 L 100.982,95.891"
           style="fill:#003555;fill-opacity:1;fill-rule:nonzero;stroke:none"
           id="path3370" /></g></g></g></svg>