<?xml version="1.0" encoding="utf-8"?>
<!-- Generator: Adobe Illustrator 19.2.1, SVG Export Plug-In . SVG Version: 6.00 Build 0)  -->
<svg version="1.1" id="layer" xmlns="http://www.w3.org/2000/svg" xmlns:xlink="http://www.w3.org/1999/xlink" x="0px" y="0px"
	 viewBox="0 0 652 652" style="enable-background:new 0 0 652 652;" xml:space="preserve">
<g>
	<path d="M92.9,322.7c-20.6-14.2-31.7-21.8-42.1-29.5c-5,8.3-7.9,18-7.9,28.4c0,18.9,9.5,35.5,24,45.4
		C72.9,355.1,81,341.8,92.9,322.7"/>
	<path d="M146.9,333.7c-8.5,9-22.1,10.3-31.8,4.2c-1.9-1.2-15.3-10.4-15.3-10.4c-14.8,20.9-22.4,31.4-30.6,41.1
		c8.3,5.1,18.1,8,28.6,8c29.4,0,53.4-23.2,54.8-52.3C151.4,327.7,149.4,331,146.9,333.7"/>
	<path d="M136.8,302.7c-1.8-1.2-13.6-9-13.6-9c-9.6,14.2-11.2,16.3-18.5,26.9c0,0,12.8,8.3,14.7,9.4c6.6,4.1,15.4,2.9,20.6-2.9
		c2-2.2,3.4-4.9,3.9-7.8C144.9,313.9,143.2,306.9,136.8,302.7"/>
	<path d="M97.3,315.8c7-11.1,13.2-21,23.1-35.9c0,0,20.7,13.7,22.6,15c2.2,1.6,3.8,3.1,5,4.6c-8.5-19.3-27.8-32.8-50.2-32.8
		c-17.9,0-33.8,8.6-43.8,21.8C65,295.1,78.2,303.6,97.3,315.8"/>
	<path d="M45.9,282.1c0-3.8-3.1-6.9-6.9-6.9c-3.8,0-6.9,3.1-6.9,6.9c0,3.8,3.1,6.9,6.9,6.9C42.7,289,45.9,285.9,45.9,282.1"/>
	<path d="M50.7,261.9l3.3-2.3c1.9-1.4,3.9-1.1,5.1,0.5l0,0c1.3,1.9,0.5,3.9-1.3,5.2l-1.6,1.2l1.9,2.7l-1.5,1L50.7,261.9z M56.9,264
		c1.1-0.8,1.3-1.9,0.7-2.8l0,0c-0.7-1-1.8-1-2.8-0.2l-1.7,1.2l2.1,3L56.9,264z"/>
	<path d="M64.3,259L64.3,259c-1.2-2.6-0.1-5.7,2.7-7c2.9-1.3,5.8,0,7,2.6l0,0c1.2,2.6,0.1,5.7-2.7,7C68.4,262.9,65.4,261.6,64.3,259
		 M72.3,255.5L72.3,255.5c-0.8-1.8-2.8-2.8-4.6-1.9c-1.8,0.8-2.5,2.9-1.7,4.7l0,0c0.8,1.8,2.8,2.7,4.6,1.9
		C72.4,259.3,73.1,257.3,72.3,255.5"/>
	<polygon points="78.3,248.2 80,247.8 81.9,256.1 87.1,255 87.4,256.6 80.5,258.1 	"/>
	<polygon points="92.7,252.1 88.3,246.1 90.4,246 93.5,250.4 96.1,245.7 98.1,245.6 94.5,251.9 94.7,256 92.9,256.1 	"/>
	<polygon points="105.4,247.8 102.2,247.4 102.4,245.8 110.6,246.7 110.4,248.4 107.2,248 106.2,256.4 104.4,256.2 	"/>
	<polygon points="116.7,248 123.9,250.2 123.4,251.8 117.9,250.1 117.1,252.6 122,254.1 121.5,255.6 116.7,254.1 115.9,256.7 
		121.4,258.5 121,260 113.7,257.8 	"/>
	<path d="M127.4,257.2L127.4,257.2c1.4-2.6,4.4-3.6,7.1-2.2c1.6,0.9,2.3,2,2.7,3.3l-1.6,0.6c-0.4-1.1-0.9-1.9-1.9-2.5
		c-1.7-0.9-3.7-0.2-4.7,1.6l0,0c-0.9,1.8-0.5,3.9,1.2,4.8c1.1,0.6,2,0.5,3.2,0.2l0.5,1.6c-1.5,0.5-2.8,0.5-4.5-0.4
		C126.9,262.8,126,259.7,127.4,257.2"/>
	<polygon points="143.2,260.7 144.6,261.8 141.9,265.1 145.6,268.2 148.3,265 149.7,266.1 143.2,273.9 141.8,272.8 144.5,269.5 
		140.8,266.4 138.1,269.6 136.7,268.5 	"/>
	<polygon points="155.1,271.7 156.1,273 153.9,281.6 159.5,277.3 160.5,278.7 152.5,284.9 151.6,283.8 153.9,274.9 148.1,279.3 
		147.1,277.9 	"/>
	<rect x="154.9" y="286.9" transform="matrix(0.8784 -0.478 0.478 0.8784 -118.1117 111.4805)" width="10.2" height="1.8"/>
	<path d="M161.7,302.9c-0.9-0.6-1.5-1.5-1.9-2.6c-1-3,0.5-5.8,3.2-6.7l0,0c2.7-0.9,5.7,0.4,6.7,3.3c1,3-0.5,5.8-3.2,6.7l0,0
		c-1.1,0.4-2.2,0.4-3.3,0l-0.6,1.4l-1.6-0.7L161.7,302.9z M162.4,301.3l0.8-2.1l1.6,0.7l-0.9,2.2c0.6,0.2,1.3,0.1,2-0.1l0,0
		c1.9-0.6,3-2.5,2.3-4.4c-0.7-1.9-2.6-2.7-4.5-2.1l0,0c-1.9,0.6-3,2.5-2.3,4.4C161.6,300.5,161.9,301,162.4,301.3"/>
	<path d="M166.8,309.1l5.8-0.7l0.2,1.8l-5.7,0.7c-1.9,0.2-2.8,1.3-2.6,2.9c0.2,1.6,1.3,2.4,3.1,2.2l5.8-0.7l0.2,1.8l-5.7,0.7
		c-3,0.4-4.7-1.2-5-3.8C162.6,311.3,163.9,309.5,166.8,309.1"/>
	<polygon points="173.7,324 173.2,331.5 171.6,331.4 172,325.6 169.4,325.4 169,330.5 167.4,330.4 167.8,325.3 165.1,325.1 
		164.6,330.9 163,330.8 163.6,323.2 	"/>
	<rect x="51.6" y="378.5" transform="matrix(0.5794 -0.815 0.815 0.5794 -285.3231 205.784)" width="10.2" height="1.8"/>
	<polygon points="47,378.3 45.9,377.1 47,368.3 42,373.2 40.8,372 48,364.8 49.1,365.9 47.9,375 53,369.9 54.2,371.1 	"/>
	<path d="M43.9,362l-1.7-0.2c0.2-1.3,0-2.4-0.7-3.4c-0.6-0.9-1.4-1.2-2.1-0.8l0,0c-0.6,0.4-0.7,1,0,2.8c0.8,2.1,0.9,3.5-0.7,4.5l0,0
		c-1.5,1-3.3,0.4-4.4-1.3c-0.8-1.2-1.1-2.5-1-3.8l1.7,0.1c-0.1,1.1,0.1,2.1,0.6,2.9c0.6,0.9,1.4,1.1,1.9,0.7l0,0
		c0.7-0.4,0.7-1,0-2.9c-0.7-2.1-0.7-3.4,0.7-4.4l0,0c1.6-1,3.4-0.4,4.5,1.4C43.8,358.9,44.1,360.4,43.9,362"/>
	<polygon points="29.9,351.8 31.2,354.8 29.7,355.4 26.4,347.9 28,347.2 29.2,350.2 37,346.8 37.8,348.5 	"/>
	<rect x="24.3" y="339.3" transform="matrix(0.9654 -0.2608 0.2608 0.9654 -87.6925 19.4452)" width="10.2" height="1.8"/>
	<polygon points="24.2,331.7 24.6,334.9 23,335.1 21.9,326.9 23.6,326.7 24,329.9 32.4,328.8 32.6,330.6 	"/>
	<path d="M27.6,321.4l-5.8-0.4l0.1-1.8l5.8,0.4c1.9,0.1,3-0.8,3.1-2.4c0.1-1.6-0.8-2.6-2.7-2.7l-5.8-0.4l0.1-1.8l5.8,0.4
		c3,0.2,4.4,2,4.3,4.7C32.2,320,30.5,321.6,27.6,321.4"/>
	<polygon points="25.7,303.8 24.9,306.9 23.2,306.5 25.3,298.5 26.9,299 26.1,302.1 34.4,304.2 33.9,306 	"/>
	<path d="M75.1,383.2l3.9,1.1c4.1,1.2,5.5,3.7,4.7,6.8l0,0c-0.9,3-3.6,4.6-7.7,3.4l-3.8-1.1L75.1,383.2z M77.1,391.6
		c1.6,0.4,2.8,0.1,3.2-1.4l0,0c0.4-1.5-0.4-2.4-2-2.9l-0.6-0.2l-1.2,4.3L77.1,391.6z"/>
	<polygon points="90.2,386.7 99.3,387.2 99.1,390.1 93.5,389.8 93.5,390.9 98.7,391.2 98.6,393.7 93.4,393.5 93.3,394.6 99,394.9 
		98.8,397.8 89.7,397.4 	"/>
	<path d="M112.7,385.5l4.6-1.4c2.7-0.8,4.9-0.2,5.7,2.2l0,0c0.7,2.5-0.7,4.3-3.5,5.2l-1.1,0.3l0.8,2.8l-3.4,1L112.7,385.5z
		 M118.6,389.2c0.9-0.3,1.3-0.8,1.1-1.6l0,0c-0.2-0.7-0.9-1-1.8-0.7l-0.9,0.3l0.7,2.3L118.6,389.2z"/>
	<path d="M128.6,379.4l3.1-1.7l9.2,7.1l-3.4,1.9l-1.2-1l-3.2,1.8l0.2,1.5l-3.3,1.9L128.6,379.4z M134.3,383.9l-2.1-1.8l0.4,2.7
		L134.3,383.9z"/>
	<path d="M139,372.8l3.8-3.6c1.4-1.3,2.6-1.8,3.6-1.7c0.9,0,1.7,0.4,2.4,1.2l0,0c1.1,1.1,1.2,2.5,0.7,3.8l4.3,1l-3,2.8l-3.5-0.9l0,0
		l-0.5,0.5l2.1,2.2l-2.6,2.4L139,372.8z M146.2,373c0.6-0.6,0.7-1.2,0.3-1.7l0,0c-0.5-0.5-1.1-0.4-1.7,0.2l-1.1,1.1l1.4,1.5
		L146.2,373z"/>
	<rect x="153.2" y="358.1" transform="matrix(0.5908 -0.8068 0.8068 0.5908 -229.7836 273.7808)" width="3.6" height="10.7"/>
	<path d="M162.6,359l-1.2-2.7c1.3-0.7,2.2-1.7,2.8-2.8c0.3-0.6,0.2-0.9,0-1l0,0c-0.3-0.1-0.6,0.1-1.3,1c-1.5,1.9-3,3.5-5,2.5l0,0
		c-1.8-0.9-2.5-3-1.3-5.6c0.9-1.9,2-3,3.4-3.7l1.4,2.6c-1.1,0.6-1.9,1.5-2.3,2.4c-0.2,0.5-0.2,0.8,0.1,0.9l0,0
		c0.3,0.1,0.5-0.1,1.2-1c1.6-2.2,3.2-3.5,5.1-2.6l0,0c2,1,2.4,3.2,1.2,5.8C165.6,356.8,164.2,358.3,162.6,359"/>
	<rect x="200.7" y="264.2" width="5" height="28.2"/>
	<polygon points="219.6,264.2 224.1,264.2 239.2,283.7 239.2,264.2 244.1,264.2 244.1,292.4 240,292.4 224.4,272.4 224.4,292.4 
		219.6,292.4 	"/>
	<path d="M268.6,276.1c-5.4-1.3-6.7-2.3-6.7-4.5c0-1.9,1.7-3.4,4.6-3.4c2.6,0,5.1,1,7.7,2.9l2.7-3.7c-2.9-2.3-6.1-3.5-10.2-3.5
		c-5.6,0-9.6,3.4-9.6,8.2c0,5.2,3.4,7,9.4,8.5c5.2,1.2,6.4,2.3,6.4,4.3c0,2.1-1.9,3.6-5,3.6c-3.5,0-6.2-1.3-8.9-3.7l-3,3.5
		c3.4,3,7.4,4.5,11.8,4.5c5.9,0,10.1-3.2,10.1-8.5C277.7,279.7,274.6,277.5,268.6,276.1"/>
	<polygon points="295.5,268.8 286.6,268.8 286.6,264.2 309.4,264.2 309.4,268.8 300.5,268.8 300.5,292.4 295.5,292.4 	"/>
	<rect x="320.3" y="264.2" width="5" height="28.2"/>
	<polygon points="345.1,268.8 336.2,268.8 336.2,264.2 359,264.2 359,268.8 350.1,268.8 350.1,292.4 345.1,292.4 	"/>
	<path d="M369,280.4v-16.2h5v16c0,5.2,2.7,8.1,7.1,8.1c4.4,0,7.1-2.7,7.1-7.9v-16.2h5v16c0,8.4-4.7,12.6-12.1,12.6
		C373.6,292.9,369,288.6,369,280.4"/>
	<polygon points="412,268.8 403,268.8 403,264.2 425.9,264.2 425.9,268.8 416.9,268.8 416.9,292.4 412,292.4 	"/>
	<path d="M211.8,307.5h-11.1v28.2h5v-9.1h5.6c6.2,0,11.3-3.3,11.3-9.7C222.5,311.3,218.3,307.5,211.8,307.5 M211.4,322.2h-5.8V312
		h5.8c3.7,0,6.1,1.8,6.1,5.1C217.5,320,215.1,322.2,211.4,322.2"/>
	<path d="M246.2,307c-8.7,0-14.8,6.7-14.8,14.6s6,14.5,14.7,14.5c8.7,0,14.8-6.7,14.8-14.6C260.9,313.6,254.9,307,246.2,307
		 M246.2,331.6c-5.6,0-9.6-4.6-9.6-10.1s3.9-10,9.5-10c5.6,0,9.6,4.6,9.6,10.1C255.7,327.1,251.8,331.6,246.2,331.6"/>
	<polygon points="272.1,307.5 277,307.5 277,331.2 291.8,331.2 291.8,335.7 272.1,335.7 	"/>
	<polygon points="305.2,324.6 294,307.5 299.8,307.5 307.7,320 315.7,307.5 321.4,307.5 310.2,324.5 310.2,335.7 305.2,335.7 	"/>
	<polygon points="338,312.1 329.1,312.1 329.1,307.5 352,307.5 352,312.1 343,312.1 343,335.7 338,335.7 	"/>
	<polygon points="362.8,307.5 383.7,307.5 383.7,311.9 367.8,311.9 367.8,319.3 381.9,319.3 381.9,323.7 367.8,323.7 367.8,331.3 
		383.9,331.3 383.9,335.7 362.8,335.7 	"/>
	<path d="M417.3,328c-2.4,2.3-4.6,3.7-8.1,3.7c-5.4,0-9.3-4.5-9.3-10.1c0-5.5,3.9-10,9.3-10c3.2,0,5.6,1.4,7.9,3.5l3.2-3.7
		c-2.7-2.6-5.8-4.4-11-4.4c-8.5,0-14.5,6.6-14.5,14.6c0,8.1,6.1,14.5,14.3,14.5c5.3,0,8.5-1.9,11.4-5L417.3,328z"/>
	<polygon points="431.3,307.5 436.3,307.5 436.3,319.2 449.7,319.2 449.7,307.5 454.7,307.5 454.7,335.7 449.7,335.7 449.7,323.8 
		436.3,323.8 436.3,335.7 431.3,335.7 	"/>
	<polygon points="468.8,307.5 473.4,307.5 488.5,327 488.5,307.5 493.4,307.5 493.4,335.7 489.2,335.7 473.7,315.6 473.7,335.7 
		468.8,335.7 	"/>
	<rect x="507.6" y="307.5" width="5" height="28.2"/>
	<path d="M550.3,330.3c1.9-2.5,2.9-5.5,2.9-8.7c0-7.9-6-14.5-14.7-14.5s-14.8,6.7-14.8,14.6s6,14.5,14.7,14.5c3.3,0,6.2-1,8.6-2.7
		l3.4,3l3.2-3.5L550.3,330.3z M546.5,327l-4.9-4.4l-3.2,3.6l4.8,4.1c-1.3,0.8-3,1.4-4.8,1.4c-5.6,0-9.6-4.6-9.6-10.1
		c0-5.5,3.9-10,9.5-10c5.6,0,9.6,4.6,9.6,10.1C547.9,323.6,547.5,325.5,546.5,327"/>
	<path d="M564.3,323.7v-16.2h5v16c0,5.2,2.7,8.1,7.1,8.1c4.4,0,7.1-2.7,7.1-7.9v-16.2h5v16c0,8.4-4.7,12.6-12.1,12.6
		C569,336.1,564.3,331.9,564.3,323.7"/>
	<polygon points="600.6,307.5 621.5,307.5 621.5,311.9 605.6,311.9 605.6,319.3 619.7,319.3 619.7,323.7 605.6,323.7 605.6,331.3 
		621.7,331.3 621.7,335.7 600.6,335.7 	"/>
	<path d="M211.5,350.8h-10.9V379h10.7c10.1,0,16.1-6.1,16.1-14.2C227.4,356.6,221.6,350.8,211.5,350.8 M211.7,372.1h-3.2v-14.3h3.2
		c4.7,0,7.8,2.7,7.8,7.2C219.4,369.4,216.3,372.1,211.7,372.1"/>
	<polygon points="240.3,350.8 263,350.8 263,357.4 248.1,357.4 248.1,361.7 261.6,361.7 261.6,367.9 248.1,367.9 248.1,372.3 
		263.2,372.3 263.2,379 240.3,379 	"/>
	<path d="M308.7,350.8h-12.1V379h7.8v-8.1h3.9c7,0,12.1-3.5,12.1-10.2C320.4,354.5,315.8,350.8,308.7,350.8 M308.1,364.8h-3.7v-7.4
		h3.7c2.8,0,4.5,1.3,4.5,3.7C312.6,363.3,310.9,364.8,308.1,364.8"/>
	<path d="M338.9,350.6h7.5l12,28.4h-8.4l-2.1-5h-10.9l-2,5h-8.2L338.9,350.6z M345.8,367.9l-3.1-8l-3.2,8H345.8z"/>
	<path d="M388.3,369.2c3.5-1.5,5.8-4.4,5.8-8.7c0-6.2-4.3-9.7-11.7-9.7h-13.3V379h7.8v-8.5h3.4l5.7,8.5h9L388.3,369.2z M382,364.3
		h-5.2v-6.8h5.1c2.6,0,4.2,1.2,4.2,3.4C386.2,363,384.7,364.3,382,364.3"/>
	<rect x="408" y="350.8" width="7.9" height="28.2"/>
	<path d="M441.9,361.4c-3.9-0.9-4.9-1.5-4.9-2.8c0-1,0.9-1.9,2.8-1.9c2.5,0,5.3,1,7.9,2.8l3.9-5.5c-3.1-2.5-6.8-3.7-11.6-3.7
		c-6.8,0-10.9,3.8-10.9,9.1c0,5.8,4.6,7.5,10.6,8.9c3.8,0.9,4.7,1.6,4.7,2.7c0,1.2-1.1,2-3.2,2c-3.3,0-6.4-1.2-9.1-3.4l-4.3,5.2
		c3.5,3.1,8.2,4.7,13.2,4.7c6.8,0,11.4-3.5,11.4-9.2C452.4,365,448.3,362.8,441.9,361.4"/>
</g>
</svg>
